<svg viewBox="0 0 1271 872" id="map" width="1271" height="872" version="1.1" xmlns="http://www.w3.org/2000/svg" xmlns:xlink="http://www.w3.org/1999/xlink" xmlns:dc="http://purl.org/dc/elements/1.1/" xmlns:rdf="http://www.w3.org/1999/02/22-rdf-syntax-ns#" xmlns:svg="http://www.w3.org/2000/svg" background-color="#000000">
      <defs>
        <g id="filters">
          <filter id="blurFilter" name="Blur 0.2" x="-1" y="-1" width="100" height="100">
            <feGaussianBlur in="SourceGraphic" stdDeviation="0.2"/>
          </filter>
          <filter id="blur1" name="Blur 1" x="-1" y="-1" width="100" height="100">
            <feGaussianBlur in="SourceGraphic" stdDeviation="1"/>
          </filter>
          <filter id="blur3" name="Blur 3" x="-1" y="-1" width="100" height="100">
            <feGaussianBlur in="SourceGraphic" stdDeviation="3"/>
          </filter>
          <filter id="blur5" name="Blur 5" x="-1" y="-1" width="100" height="100">
            <feGaussianBlur in="SourceGraphic" stdDeviation="5"/>
          </filter>
          <filter id="blur7" name="Blur 7" x="-1" y="-1" width="100" height="100">
            <feGaussianBlur in="SourceGraphic" stdDeviation="7"/>
          </filter>
          <filter id="blur10" name="Blur 10" x="-1" y="-1" width="100" height="100">
            <feGaussianBlur in="SourceGraphic" stdDeviation="10"/>
          </filter>
          <filter id="splotch" name="Splotch">
            <feTurbulence type="fractalNoise" baseFrequency=".01" numOctaves="4"/>
            <feColorMatrix values="0 0 0 0 0, 0 0 0 0 0, 0 0 0 0 0, 0 0 0 -0.9 1.2" result="texture"/>
            <feComposite in="SourceGraphic" in2="texture" operator="in"/>
          </filter>
          <filter id="bluredSplotch" name="Blurred Splotch">
            <feTurbulence type="fractalNoise" baseFrequency=".01" numOctaves="4"/>
            <feColorMatrix values="0 0 0 0 0, 0 0 0 0 0, 0 0 0 0 0, 0 0 0 -0.9 1.2" result="texture"/>
            <feComposite in="SourceGraphic" in2="texture" operator="in"/>
            <feGaussianBlur stdDeviation="4"/>
          </filter>
          <filter id="dropShadow" name="Shadow 2">
            <feGaussianBlur in="SourceAlpha" stdDeviation="2"/>
            <feOffset dx="1" dy="2"/>
            <feMerge>
              <feMergeNode/>
              <feMergeNode in="SourceGraphic"/>
            </feMerge>
          </filter>
          <filter id="dropShadow01" name="Shadow 0.1">
            <feGaussianBlur in="SourceAlpha" stdDeviation=".1"/>
            <feOffset dx=".2" dy=".3"/>
            <feMerge>
              <feMergeNode/>
              <feMergeNode in="SourceGraphic"/>
            </feMerge>
          </filter>
          <filter id="dropShadow05" name="Shadow 0.5">
            <feGaussianBlur in="SourceAlpha" stdDeviation=".5"/>
            <feOffset dx=".5" dy=".7"/>
            <feMerge>
              <feMergeNode/>
              <feMergeNode in="SourceGraphic"/>
            </feMerge>
          </filter>
          <filter id="outline" name="Outline">
            <feGaussianBlur in="SourceAlpha" stdDeviation="1"/>
            <feMerge>
              <feMergeNode/>
              <feMergeNode in="SourceGraphic"/>
            </feMerge>
          </filter>
          <filter id="pencil" name="Pencil">
            <feTurbulence baseFrequency="0.03" numOctaves="6" type="fractalNoise"/>
            <feDisplacementMap scale="3" in="SourceGraphic" xChannelSelector="R" yChannelSelector="G"/>
          </filter>
          <filter id="turbulence" name="Turbulence">
            <feTurbulence baseFrequency="0.1" numOctaves="3" type="fractalNoise"/>
            <feDisplacementMap scale="10" in="SourceGraphic" xChannelSelector="R" yChannelSelector="G"/>
          </filter>

          <filter id="paper" name="Paper" x="-20%" y="-20%" width="140%" height="140%" filterUnits="objectBoundingBox" primitiveUnits="userSpaceOnUse" color-interpolation-filters="sRGB">
            <feGaussianBlur stdDeviation="1 1" x="0%" y="0%" width="100%" height="100%" in="SourceGraphic" edgeMode="none" result="blur"/>
            <feTurbulence type="fractalNoise" baseFrequency="0.05 0.05" numOctaves="4" seed="1" stitchTiles="stitch" result="turbulence"/>
            <feDiffuseLighting surfaceScale="2" diffuseConstant="1" lighting-color="#707070" in="turbulence" result="diffuseLighting">
              <feDistantLight azimuth="45" elevation="20"/>
            </feDiffuseLighting>
            <feComposite in="diffuseLighting" in2="blur" operator="lighter" result="composite"/>
            <feComposite in="composite" in2="SourceGraphic" operator="in" x="0%" y="0%" width="100%" height="100%" result="composite1"/>
          </filter>

          <filter id="crumpled" name="Crumpled" x="-20%" y="-20%" width="140%" height="140%" filterUnits="objectBoundingBox" primitiveUnits="userSpaceOnUse" color-interpolation-filters="sRGB">
            <feGaussianBlur stdDeviation="2 2" x="0%" y="0%" width="100%" height="100%" in="SourceGraphic" edgeMode="none" result="blur"/>
            <feTurbulence type="turbulence" baseFrequency="0.05 0.05" numOctaves="4" seed="1" stitchTiles="stitch" result="turbulence"/>
            <feDiffuseLighting surfaceScale="2" diffuseConstant="1" lighting-color="#828282" in="turbulence" result="diffuseLighting">
              <feDistantLight azimuth="320" elevation="10"/>
            </feDiffuseLighting>
            <feComposite in="diffuseLighting" in2="blur" operator="lighter" result="composite"/>
            <feComposite in="composite" in2="SourceGraphic" operator="in" x="0%" y="0%" width="100%" height="100%" result="composite1"/>
          </filter>

          <filter id="filter-grayscale" name="Grayscale">
            <feColorMatrix values="0.3333 0.3333 0.3333 0 0 0.3333 0.3333 0.3333 0 0 0.3333 0.3333 0.3333 0 0 0 0 0 1 0"/>
          </filter>
          <filter id="filter-sepia" name="Sepia">
            <feColorMatrix values="0.393 0.769 0.189 0 0 0.349 0.686 0.168 0 0 0.272 0.534 0.131 0 0 0 0 0 1 0"/>
          </filter>
          <filter id="filter-dingy" name="Dingy">
            <feColorMatrix values="1 0 0 0 0 0 1 0 0 0 0 0.3 0.3 0 0 0 0 0 1 0"/>
          </filter>
          <filter id="filter-tint" name="Tint">
            <feColorMatrix values="1.1 0 0 0 0  0 1.1 0 0 0  0 0 0.9 0 0  0 0 0 1 0"/>
          </filter>
        </g>

        <g id="deftemp">
          <g id="featurePaths"><path d="M741.2,428.3C742,428,743,428,743.7,427.8C744.3,427.7,744.7,427.3,746.2,427.2C747.7,427,750.3,427,752.5,427.3C754.7,427.7,756.3,428.3,757.3,428.5C758.3,428.7,758.7,428.3,759.5,428.7C760.3,429,761.7,430,762.3,430.7C763,431.3,763,431.7,763.3,432C763.7,432.3,764.3,432.7,764.7,433.2C765,433.7,765,434.3,765.3,435C765.7,435.7,766.3,436.3,766.7,437C767,437.7,767,438.3,767.3,439C767.7,439.7,768.3,440.3,769,440.8C769.7,441.3,770.3,441.7,770.7,442C771,442.3,771,442.7,771.3,442.8C771.7,443,772.3,443,772.7,443.2C773,443.3,773,443.7,773.5,444.2C774,444.7,775,445.3,775.8,446C776.7,446.7,777.3,447.3,777.5,448C777.7,448.7,777.3,449.3,777.3,450C777.3,450.7,777.7,451.3,777.7,451.8C777.7,452.3,777.3,452.7,777.2,453.2C777,453.7,777,454.3,776.7,455.2C776.3,456,775.7,457,775.5,458C775.3,459,775.7,460,776,460.5C776.3,461,776.7,461,777.3,461.5C778,462,779,463,779.5,463.7C780,464.3,780,464.7,779.3,465.5C778.7,466.3,777.3,467.7,776.5,468.8C775.7,470,775.3,471,775.3,471.5C775.3,472,775.7,472,775.7,472C775.7,472,775.3,472,775.5,472.5C775.7,473,776.3,474,776.5,474.7C776.7,475.3,776.3,475.7,776.5,476.2C776.7,476.7,777.3,477.3,777.5,478.2C777.7,479,777.3,480,776.8,480.3C776.3,480.7,775.7,480.3,775,480.7C774.3,481,773.7,482,773.3,482.7C773,483.3,773,483.7,772.3,484.3C771.7,485,770.3,486,769.3,486.5C768.3,487,767.7,487,767.2,487.3C766.7,487.7,766.3,488.3,765.7,488.8C765,489.3,764,489.7,763.5,490.3C763,491,763,492,762.8,493C762.7,494,762.3,495,762,495.7C761.7,496.3,761.3,496.7,761.2,497.3C761,498,761,499,761.2,499.7C761.3,500.3,761.7,500.7,761.7,501.3C761.7,502,761.3,503,761.3,503.5C761.3,504,761.7,504,762,504.3C762.3,504.7,762.7,505.3,762.8,506.2C763,507,763,508,762.8,508.8C762.7,509.7,762.3,510.3,762.2,510.8C762,511.3,762,511.7,761.5,512C761,512.3,760,512.7,759.2,512.7C758.3,512.7,757.7,512.3,757.2,512.3C756.7,512.3,756.3,512.7,755.7,513C755,513.3,754,513.7,753.5,513.7C753,513.7,753,513.3,752.7,513.2C752.3,513,751.7,513,751,512.8C750.3,512.7,749.7,512.3,749,512.2C748.3,512,747.7,512,747,512.2C746.3,512.3,745.7,512.7,745.3,514C745,515.3,745,517.7,744.8,519.2C744.7,520.7,744.3,521.3,743.7,521.5C743,521.7,742,521.3,741.2,521.5C740.3,521.7,739.7,522.3,739.5,523C739.3,523.7,739.7,524.3,739.7,525C739.7,525.7,739.3,526.3,739.2,526.8C739,527.3,739,527.7,738.7,528.2C738.3,528.7,737.7,529.3,737.3,530C737,530.7,737,531.3,736.7,531.8C736.3,532.3,735.7,532.7,735,532.7C734.3,532.7,733.7,532.3,733,532.3C732.3,532.3,731.7,532.7,731,533.5C730.3,534.3,729.7,535.7,729,536.5C728.3,537.3,727.7,537.7,726.3,537.8C725,538,723,538,721.5,538.3C720,538.7,719,539.3,718.3,539.7C717.7,540,717.3,540,717.2,540.2C717,540.3,717,540.7,716.5,540.8C716,541,715,541,714.5,540.8C714,540.7,714,540.3,713.3,540.2C712.7,540,711.3,540,710.7,540.2C710,540.3,710,540.7,709.7,541C709.3,541.3,708.7,541.7,708,541.7C707.3,541.7,706.7,541.3,705.8,541.2C705,541,704,541,703.3,541.2C702.7,541.3,702.3,541.7,702,541.8C701.7,542,701.3,542,700.7,542.5C700,543,699,544,698,544.5C697,545,696,545,695.3,545.2C694.7,545.3,694.3,545.7,693.2,545.8C692,546,690,546,687.8,545.3C685.7,544.7,683.3,543.3,681.2,543.2C679,543,677,544,675.8,544.5C674.7,545,674.3,545,674,544.5C673.7,544,673.3,543,672.8,542.7C672.3,542.3,671.7,542.7,671.2,543.3C670.7,544,670.3,545,670,545.7C669.7,546.3,669.3,546.7,668.7,546.8C668,547,667,547,666.3,546.8C665.7,546.7,665.3,546.3,664.8,546.3C664.3,546.3,663.7,546.7,663,546.5C662.3,546.3,661.7,545.7,661,545.5C660.3,545.3,659.7,545.7,659,545.7C658.3,545.7,657.7,545.3,657.2,545.2C656.7,545,656.3,545,656,544.5C655.7,544,655.3,543,654.7,542.3C654,541.7,653,541.3,652.3,541.3C651.7,541.3,651.3,541.7,651,541.7C650.7,541.7,650.3,541.3,650,541.3C649.7,541.3,649.3,541.7,649,541.8C648.7,542,648.3,542,648,541.8C647.7,541.7,647.3,541.3,646.8,541.2C646.3,541,645.7,541,645,540.7C644.3,540.3,643.7,539.7,643.5,539C643.3,538.3,643.7,537.7,643.5,537.2C643.3,536.7,642.7,536.3,642.3,535.8C642,535.3,642,534.7,641.7,534C641.3,533.3,640.7,532.7,640,532.2C639.3,531.7,638.7,531.3,637.8,531.3C637,531.3,636,531.7,635.3,532C634.7,532.3,634.3,532.7,634,532.8C633.7,533,633.3,533,633,532.8C632.7,532.7,632.3,532.3,630.7,532.2C629,532,626,532,624.2,531.7C622.3,531.3,621.7,530.7,621.5,530.2C621.3,529.7,621.7,529.3,621.7,528.8C621.7,528.3,621.3,527.7,621.5,527C621.7,526.3,622.3,525.7,622.2,525.2C622,524.7,621,524.3,620.7,523.8C620.3,523.3,620.7,522.7,620.5,522.2C620.3,521.7,619.7,521.3,619.5,520.8C619.3,520.3,619.7,519.7,619.5,519.2C619.3,518.7,618.7,518.3,618.3,517.8C618,517.3,618,516.7,617.8,516.2C617.7,515.7,617.3,515.3,617.2,515C617,514.7,617,514.3,616.8,513.8C616.7,513.3,616.3,512.7,616,512.3C615.7,512,615.3,512,614.8,511.7C614.3,511.3,613.7,510.7,613,510.3C612.3,510,611.7,510,611.3,509.7C611,509.3,611,508.7,611.2,508C611.3,507.3,611.7,506.7,612,506.3C612.3,506,612.7,506,613,505.7C613.3,505.3,613.7,504.7,614.2,504C614.7,503.3,615.3,502.7,615.7,501.8C616,501,616,500,615.8,499.3C615.7,498.7,615.3,498.3,615.3,497.8C615.3,497.3,615.7,496.7,615.8,495.8C616,495,616,494,616.2,493.2C616.3,492.3,616.7,491.7,616.8,490.7C617,489.7,617,488.3,617.5,487C618,485.7,619,484.3,619.5,483.3C620,482.3,620,481.7,620.5,481.2C621,480.7,622,480.3,622.5,479.8C623,479.3,623,478.7,623.5,478.2C624,477.7,625,477.3,625.8,476.8C626.7,476.3,627.3,475.7,627.8,475.5C628.3,475.3,628.7,475.7,629,475.5C629.3,475.3,629.7,474.7,630.3,474.3C631,474,632,474,632.8,474.2C633.7,474.3,634.3,474.7,634.8,475.2C635.3,475.7,635.7,476.3,636.2,476.8C636.7,477.3,637.3,477.7,637.7,478C638,478.3,638,478.7,638.3,479C638.7,479.3,639.3,479.7,639.8,479.7C640.3,479.7,640.7,479.3,641.2,479.3C641.7,479.3,642.3,479.7,643,479.8C643.7,480,644.3,480,645,480.2C645.7,480.3,646.3,480.7,646.8,480.7C647.3,480.7,647.7,480.3,648,480.3C648.3,480.3,648.7,480.7,649.3,480.7C650,480.7,651,480.3,651.7,479.8C652.3,479.3,652.7,478.7,653.3,478.3C654,478,655,478,655.7,478.3C656.3,478.7,656.7,479.3,657.3,479.7C658,480,659,480,660,480.3C661,480.7,662,481.3,662.7,481.8C663.3,482.3,663.7,482.7,663.8,483.2C664,483.7,664,484.3,664.3,485.2C664.7,486,665.3,487,666,487.5C666.7,488,667.3,488,667.7,487.5C668,487,668,486,668.3,485.3C668.7,484.7,669.3,484.3,669.7,484C670,483.7,670,483.3,670.3,483.2C670.7,483,671.3,483,672,482.7C672.7,482.3,673.3,481.7,675.5,481.3C677.7,481,681.3,481,683.5,480.5C685.7,480,686.3,479,686.5,478.3C686.7,477.7,686.3,477.3,686.3,476.5C686.3,475.7,686.7,474.3,687.2,473.3C687.7,472.3,688.3,471.7,689,471.2C689.7,470.7,690.3,470.3,691.2,470.2C692,470,693,470,693.7,470.2C694.3,470.3,694.7,470.7,695,470.8C695.3,471,695.7,471,696,470.7C696.3,470.3,696.7,469.7,696.7,469C696.7,468.3,696.3,467.7,696.7,467.2C697,466.7,698,466.3,698.3,466C698.7,465.7,698.3,465.3,698.5,464.8C698.7,464.3,699.3,463.7,699.7,463C700,462.3,700,461.7,700.2,461C700.3,460.3,700.7,459.7,700.8,459.2C701,458.7,701,458.3,701.3,458C701.7,457.7,702.3,457.3,703,457.3C703.7,457.3,704.3,457.7,704.8,457.7C705.3,457.7,705.7,457.3,706.2,457.3C706.7,457.3,707.3,457.7,708,457.8C708.7,458,709.3,458,709.7,457.8C710,457.7,710,457.3,711.2,457.2C712.3,457,714.7,457,715.8,456.7C717,456.3,717,455.7,716.7,454.5C716.3,453.3,715.7,451.7,715.7,450.5C715.7,449.3,716.3,448.7,716.7,448.2C717,447.7,717,447.3,717.3,446.7C717.7,446,718.3,445,718.8,444C719.3,443,719.7,442,720.2,441.5C720.7,441,721.3,441,721.8,440.8C722.3,440.7,722.7,440.3,723.2,440.2C723.7,440,724.3,440,724.7,439.7C725,439.3,725,438.7,725.5,438.3C726,438,727,438,728,437.8C729,437.7,730,437.3,730.5,437.3C731,437.3,731,437.7,731.7,437.3C732.3,437,733.7,436,734.5,435.5C735.3,435,735.7,435,736,434.8C736.3,434.7,736.7,434.3,736.8,433.8C737,433.3,737,432.7,737.3,432C737.7,431.3,738.3,430.7,738.7,430.3C739,430,739,430,739.3,429.7C739.7,429.3,740.3,428.7,741.2,428.3Z" id="feature_2" data-f="2"/></g>
          <g id="textPaths"><path d="M667,494C669.9,494,672.8,494,677,494C681.2,494,686.6,494,692,494" id="textPath_stateLabel1"/><path d="M607.1515808105469,493.21705627441406h45.0572509765625" id="textPath_stateLabel2"/><path d="M624.2,524C628,519.6,631.8,515.2,636,509.1C640.3,503.1,645,495.4,649.7,487.7" id="textPath_stateLabel3"/><path d="M627,529C632,529,637,529,642,529C647,529,652,529,657,529" id="textPath_stateLabel4"/><path d="M658.9640808105469,537.8217468261719h21.5093994140625" id="textPath_stateLabel5"/><path d="M679.2778930664062,511.56956481933594h41.15869140625" id="textPath_stateLabel6"/><path d="M684.2,483.3C689.5,482.2,694.9,481.1,699,481C703.1,480.9,706,481.7,708.9,482.6" id="textPath_stateLabel7"/><path d="M718.9946899414062,457.34239196777344h24.44921875" id="textPath_stateLabel8"/><path d="M702,464C702.4,464,702.8,464,707,464C711.2,464,719.1,464,727,464" id="textPath_stateLabel9"/><path d="M704.0457763671875,485.38380432128906h39.75830078125" id="textPath_stateLabel10"/><path d="M731.6,479C733,479,734.4,479,737,479C739.6,479,743.5,479,747.4,479" id="textPath_stateLabel11"/><path d="M736,451C745.6,451,755.2,451,761,451C766.8,451,768.9,451,771,451" id="textPath_stateLabel12"/><path d="M731.8449096679688,441.896240234375h48.484130859375" id="textPath_stateLabel13"/><path d="M747.7,463C748.6,463,749.6,463,753,463C756.4,463,762.4,463,768.3,463" id="textPath_stateLabel14"/><path d="M733.3,518.8C737.3,515,741.3,511.1,745.2,507.3C749.2,503.4,753.1,499.6,757.1,495.8" id="textPath_stateLabel15"/><path d="M755.3,488.3C758.5,485.9,761.7,483.5,765,481C768.3,478.5,771.8,475.8,775.3,473.2" id="textPath_stateLabel16"/></g>
          <g id="statePaths"/>
          <g id="defs-emblems"/>
          <mask id="land"><use href="#feature_2" data-f="2" fill="white"/></mask>
          <mask id="water"><rect x="0" y="0" width="100%" height="100%" fill="white"/><use href="#feature_2" data-f="2" fill="black"/></mask>
          <mask id="fog" style="stroke-width: 10; stroke: black; stroke-linejoin: round; stroke-opacity: 0.1">
            <rect x="0" y="0" width="1271" height="872" fill="white" stroke="none"/>
          </mask>
        </g>

        <pattern id="oceanic" width="100" height="100" patternUnits="userSpaceOnUse">
          <image id="oceanicPattern" href="./images/pattern1.png" opacity="0.2"/>
        </pattern>

        <mask id="vignette-mask">
          <rect x="0" y="0" width="100%" height="100%" fill="white"/>
          <rect id="vignette-rect" fill="black" x="0.3%" y="0.4%" width="99.6%" height="99.2%" rx="5%" ry="5%" filter="blur(20px)"/>
        </mask>
      </defs>
      <g id="viewbox" shape-rendering="optimizeSpeed" style="cursor: default;"><g id="ocean"><g id="oceanLayers" layers="-6,-3,-1"><rect id="oceanBase" x="0" y="0" width="1271" height="872" fill="#466eab"/><path d="M774.5,402.3C782.3,406,788.7,412,793.3,418.8C798,425.7,801,433.3,802.8,442.3C804.7,451.3,805.3,461.7,803.8,472C802.3,482.3,798.7,492.7,794.7,503.5C790.7,514.3,786.3,525.7,780.7,533C775,540.3,768,543.7,760.5,548.2C753,552.7,745,558.3,736.3,562.8C727.7,567.3,718.3,570.7,708.5,572C698.7,573.3,688.3,572.7,678.5,572.8C668.7,573,659.3,574,649.7,572.8C640,571.7,630,568.3,621.5,563.5C613,558.7,606,552.3,600.7,545.7C595.3,539,591.7,532,589,524.3C586.3,516.7,584.7,508.3,584.3,499.3C584,490.3,585,480.7,589,473.5C593,466.3,600,461.7,606.5,457.8C613,454,619,451,627,449.2C635,447.3,645,446.7,653.7,445.2C662.3,443.7,669.7,441.3,676.3,437C683,432.7,689,426.3,696.2,421C703.3,415.7,711.7,411.3,720.5,408C729.3,404.7,738.7,402.3,743.3,400.5C748,398.7,748,397.3,752.7,397.3C757.3,397.3,766.7,398.7,774.5,402.3" fill="#ecf2f9" fill-opacity="0.13"/><path d="M735.3,417.3C730.3,419.7,725.7,422.3,721.3,425C717,427.7,713,430.3,708.8,433.3C704.7,436.3,700.3,439.7,696.8,443.5C693.3,447.3,690.7,451.7,687.5,455.2C684.3,458.7,680.7,461.3,675.7,462C670.7,462.7,664.3,461.3,658.2,460.5C652,459.7,646,459.3,640.7,459.5C635.3,459.7,630.7,460.3,626.5,462.3C622.3,464.3,618.7,467.7,614.8,469.8C611,472,607,473,605.2,477C603.3,481,603.7,488,602.8,493.5C602,499,600,503,600,507.8C600,512.7,602,518.3,603.5,523.2C605,528,606,532,608.7,535.7C611.3,539.3,615.7,542.7,620.2,545.2C624.7,547.7,629.3,549.3,634,551.3C638.7,553.3,643.3,555.7,648.5,557C653.7,558.3,659.3,558.7,664.8,559.2C670.3,559.7,675.7,560.3,681.2,560.8C686.7,561.3,692.3,561.7,697.3,561.3C702.3,561,706.7,560,711.8,558.2C717,556.3,723,553.7,728.5,550.8C734,548,739,545,743.7,542C748.3,539,752.7,536,756.7,532.7C760.7,529.3,764.3,525.7,767.3,523.2C770.3,520.7,772.7,519.3,774.2,516C775.7,512.7,776.3,507.3,778.5,502.5C780.7,497.7,784.3,493.3,786.5,488.2C788.7,483,789.3,477,789.7,471.5C790,466,790,461,790.7,455.3C791.3,449.7,792.7,443.3,790.7,439.5C788.7,435.7,783.3,434.3,779.7,430.8C776,427.3,774,421.7,770.8,418.5C767.7,415.3,763.3,414.7,759.8,413.8C756.3,413,753.7,412,749.7,412.5C745.7,413,740.3,415,735.3,417.3" fill="#ecf2f9" fill-opacity="0.13"/><path d="M739.5,424.7C742,423.7,745,423.3,747.5,423.3C750,423.3,752,423.7,754.2,423.8C756.3,424,758.7,424,760.7,424.5C762.7,425,764.3,426,766,427.7C767.7,429.3,769.3,431.7,770.8,434C772.3,436.3,773.7,438.7,775.5,440.5C777.3,442.3,779.7,443.7,780.8,445.2C782,446.7,782,448.3,781.8,450.7C781.7,453,781.3,456,782,458.3C782.7,460.7,784.3,462.3,784.5,464.3C784.7,466.3,783.3,468.7,782.5,471C781.7,473.3,781.3,475.7,781.2,477.8C781,480,781,482,780.2,483.8C779.3,485.7,777.7,487.3,775.3,488.3C773,489.3,770,489.7,768.5,491.3C767,493,767,496,766.8,498C766.7,500,766.3,501,766.8,503.2C767.3,505.3,768.7,508.7,768,511C767.3,513.3,764.7,514.7,762,515.7C759.3,516.7,756.7,517.3,754.3,518.3C752,519.3,750,520.7,748.8,522.3C747.7,524,747.3,526,746.5,527.7C745.7,529.3,744.3,530.7,742.3,532.3C740.3,534,737.7,536,735.3,537.3C733,538.7,731,539.3,728.7,540.3C726.3,541.3,723.7,542.7,721.3,544C719,545.3,717,546.7,715.2,547.2C713.3,547.7,711.7,547.3,709.5,546.8C707.3,546.3,704.7,545.7,702.3,546.2C700,546.7,698,548.3,696.2,549.5C694.3,550.7,692.7,551.3,690.7,551.5C688.7,551.7,686.3,551.3,684,551C681.7,550.7,679.3,550.3,676.8,550.5C674.3,550.7,671.7,551.3,669,551.3C666.3,551.3,663.7,550.7,661.2,550.7C658.7,550.7,656.3,551.3,654.7,550.7C653,550,652,548,650.5,547.2C649,546.3,647,546.7,645,545.7C643,544.7,641,542.3,639.3,541C637.7,539.7,636.3,539.3,634.8,538.7C633.3,538,631.7,537,629.3,536.7C627,536.3,624,536.7,621.5,536.8C619,537,617,537,616.2,535.5C615.3,534,615.7,531,615.7,528.5C615.7,526,615.3,524,614.7,521.8C614,519.7,613,517.3,611.7,515.7C610.3,514,608.7,513,607.8,511.3C607,509.7,607,507.3,607.7,505.2C608.3,503,609.7,501,610.2,498.5C610.7,496,610.3,493,610.3,490.7C610.3,488.3,610.7,486.7,611.3,485C612,483.3,613,481.7,614.7,480.3C616.3,479,618.7,478,620.7,476.7C622.7,475.3,624.3,473.7,626.7,472.7C629,471.7,632,471.3,634.2,471.7C636.3,472,637.7,473,639.7,474.3C641.7,475.7,644.3,477.3,647.2,476.8C650,476.3,653,473.7,655.2,472.8C657.3,472,658.7,473,660.2,474.3C661.7,475.7,663.3,477.3,665.5,477.8C667.7,478.3,670.3,477.7,672.3,477C674.3,476.3,675.7,475.7,677.5,475.2C679.3,474.7,681.7,474.3,683.3,473.2C685,472,686,470,687.5,468.8C689,467.7,691,467.3,692.3,466.2C693.7,465,694.3,463,695.3,460.5C696.3,458,697.7,455,699.7,453.8C701.7,452.7,704.3,453.3,705.8,452.5C707.3,451.7,707.7,449.3,708.8,447.5C710,445.7,712,444.3,713.3,442.8C714.7,441.3,715.3,439.7,717,438.7C718.7,437.7,721.3,437.3,723.5,436.7C725.7,436,727.3,435,728.8,433.7C730.3,432.3,731.7,430.7,732.3,429.8C733,429,733,429,734,428.2C735,427.3,737,425.7,739.5,424.7" fill="#ecf2f9" fill-opacity="0.13"/></g><g id="oceanPattern"><rect fill="url(#oceanic)" x="0" y="0" width="1271" height="872"/></g></g><g id="lakes" style=""><g id="freshwater" opacity="0.5" fill="#a6c1fd" stroke="#5f799d" stroke-width="0.7"/><g id="salt" opacity="0.5" fill="#409b8a" stroke="#388985" stroke-width="0.7"/><g id="sinkhole" opacity="1" fill="#5bc9fd" stroke="#53a3b0" stroke-width="0.7"/><g id="frozen" opacity="0.95" fill="#cdd4e7" stroke="#cfe0eb" stroke-width="0"/><g id="lava" opacity="0.7" fill="#90270d" stroke="#f93e0c" stroke-width="2" filter="url(#crumpled)"/><g id="dry" opacity="1" fill="#c9bfa7" stroke="#8e816f" stroke-width="0.7"/></g><g id="landmass" opacity="1" fill="#eef6fb" style=""><rect x="0" y="0" width="1271" height="872"/></g><g id="texture" mask="url(#land)" data-x="0" data-y="0" data-href="./images/textures/marble-big.jpg"/><g id="heights"/><g id="terrs"><g id="oceanHeights" data-render="0" opacity="1" scheme="bright" terracing="0" skip="0" relax="1" curve="curveBasisClosed"/><g id="landHeights" opacity="1" scheme="bright" terracing="0" skip="5" relax="0" curve="curveBasisClosed" mask="url(#land)"/></g><g id="biomes" mask="url(#land)"/><g id="cells" stroke="#808080" stroke-width="0.1"/><g id="gridOverlay" opacity="1" scale="0.28" dx="0" dy="0" type="pointyHex" stroke="#777777" stroke-width="0.5"><rect width="1920" height="1006" fill="url(#pattern_pointyHex)" stroke="none"/></g><g id="coordinates" opacity="1" data-size="12" font-size="12" stroke="#d4d4d4" stroke-width="1" stroke-dasharray="5"/><g id="compass" opacity="0.8" mask="url(#water)" shape-rendering="optimizespeed" style="display: none;"/><g id="rivers" fill="#5d97bb"/><g id="terrain" set="simple" size="1" density="0.4" style="display: none;"><use href="#relief-conifer-1" x="739.73" y="421.23" width="16.53" height="16.53"/><use href="#relief-conifer-1" x="736.67" y="421.67" width="16.65" height="16.65"/><use href="#relief-conifer-1" x="746.81" y="421.31" width="18.37" height="18.37"/><use href="#relief-conifer-1" x="732.34" y="424.34" width="16.32" height="16.32"/><use href="#relief-conifer-1" x="752.5" y="424" width="20" height="20"/><use href="#relief-hill-1" x="747.1" y="436.1" width="8.8" height="8.8"/><use href="#relief-conifer-1" x="732.8" y="427.8" width="17.4" height="17.4"/><use href="#relief-conifer-1" x="755.24" y="428.74" width="16.53" height="16.53"/><use href="#relief-conifer-1" x="728.97" y="428.47" width="18.05" height="18.05"/><use href="#relief-deciduous-1" x="724.86" y="430.36" width="16.28" height="16.28"/><use href="#relief-conifer-1" x="755.71" y="429.71" width="17.57" height="17.57"/><use href="#relief-deciduous-1" x="721.6" y="431.1" width="16.81" height="16.81"/><use href="#relief-hill-1" x="754.2" y="439.2" width="9.6" height="9.6"/><use href="#relief-hill-1" x="744" y="437.5" width="12" height="12"/><use href="#relief-grass-1" x="716.65" y="430.15" width="19.7" height="19.7"/><use href="#relief-hill-1" x="740.9" y="438.9" width="11.2" height="11.2"/><use href="#relief-hill-1" x="748" y="438.5" width="12" height="12"/><use href="#relief-grass-1" x="748.17" y="428.67" width="22.67" height="22.67"/><use href="#relief-grass-1" x="744.08" y="429.58" width="21.84" height="21.84"/><use href="#relief-conifer-1" x="756.52" y="431.52" width="19.97" height="19.97"/><use href="#relief-deciduous-1" x="722.14" y="435.14" width="16.73" height="16.73"/><use href="#relief-conifer-1" x="759.34" y="434.34" width="18.31" height="18.31"/><use href="#relief-grass-1" x="712.3" y="433.8" width="19.4" height="19.4"/><use href="#relief-hill-1" x="757.2" y="443.7" width="9.6" height="9.6"/><use href="#relief-hill-1" x="738.5" y="441.5" width="12" height="12"/><use href="#relief-conifer-1" x="762.24" y="437.24" width="16.51" height="16.51"/><use href="#relief-grass-1" x="712.55" y="430.05" width="23.9" height="23.9"/><use href="#relief-deciduous-1" x="718.01" y="436.01" width="17.99" height="17.99"/><use href="#relief-hill-1" x="744.5" y="442.5" width="12" height="12"/><use href="#relief-grass-1" x="752.32" y="432.82" width="22.37" height="22.37"/><use href="#relief-grass-1" x="730.26" y="433.76" width="21.49" height="21.49"/><use href="#relief-hill-1" x="749.5" y="443.5" width="12" height="12"/><use href="#relief-conifer-1" x="764.75" y="438.25" width="17.51" height="17.51"/><use href="#relief-conifer-1" x="767.69" y="439.69" width="16.61" height="16.61"/><use href="#relief-grass-1" x="710.75" y="437.25" width="19.49" height="19.49"/><use href="#relief-hill-1" x="756.9" y="445.9" width="11.2" height="11.2"/><use href="#relief-deciduous-1" x="721.6" y="439.1" width="18.81" height="18.81"/><use href="#relief-conifer-1" x="726.65" y="441.15" width="17.7" height="17.7"/><use href="#relief-hill-1" x="759.9" y="447.9" width="11.2" height="11.2"/><use href="#relief-hill-1" x="736" y="447.5" width="12" height="12"/><use href="#relief-grass-1" x="714.33" y="440.33" width="19.33" height="19.33"/><use href="#relief-grass-1" x="716.75" y="439.25" width="20.51" height="20.51"/><use href="#relief-hill-1" x="753.5" y="448" width="12" height="12"/><use href="#relief-conifer-1" x="765.97" y="441.97" width="18.07" height="18.07"/><use href="#relief-grass-1" x="707.75" y="440.25" width="20.5" height="20.5"/><use href="#relief-grass-1" x="757.47" y="437.97" width="23.05" height="23.05"/><use href="#relief-hill-1" x="759.8" y="452.3" width="10.4" height="10.4"/><use href="#relief-grass-1" x="710.22" y="441.22" width="21.57" height="21.57"/><use href="#relief-conifer-1" x="728.3" y="444.8" width="18.39" height="18.39"/><use href="#relief-deciduous-1" x="722.02" y="444.52" width="18.96" height="18.96"/><use href="#relief-mount-1" x="735.4" y="440.4" width="23.2" height="23.2"/><use href="#relief-hill-1" x="734.5" y="452" width="12" height="12"/><use href="#relief-hill-1" x="754.5" y="452" width="12" height="12"/><use href="#relief-grass-1" x="707.59" y="442.09" width="22.81" height="22.81"/><use href="#relief-grass-1" x="714.99" y="442.99" width="22.01" height="22.01"/><use href="#relief-conifer-1" x="764.87" y="447.37" width="18.26" height="18.26"/><use href="#relief-deciduous-1" x="719.54" y="448.54" width="17.93" height="17.93"/><use href="#relief-mount-1" x="737.9" y="439.9" width="27.2" height="27.2"/><use href="#relief-deciduous-1" x="724.27" y="450.77" width="16.46" height="16.46"/><use href="#relief-mount-1" x="743.1" y="442.6" width="24.8" height="24.8"/><use href="#relief-grass-1" x="708.26" y="445.26" width="22.48" height="22.48"/><use href="#relief-conifer-1" x="729.13" y="449.63" width="18.73" height="18.73"/><use href="#relief-hill-1" x="755" y="457" width="12" height="12"/><use href="#relief-mount-1" x="733.9" y="445.9" width="23.2" height="23.2"/><use href="#relief-mount-1" x="744.8" y="446.8" width="22.4" height="22.4"/><use href="#relief-grass-1" x="712.11" y="446.61" width="22.77" height="22.77"/><use href="#relief-grass-1" x="692.48" y="449.48" width="20.04" height="20.04"/><use href="#relief-hill-1" x="736.5" y="458" width="12" height="12"/><use href="#relief-grass-1" x="696.47" y="449.97" width="20.06" height="20.06"/><use href="#relief-mount-1" x="736.8" y="444.3" width="26.4" height="26.4"/><use href="#relief-grass-1" x="700.61" y="448.11" width="22.77" height="22.77"/><use href="#relief-deciduous-1" x="722.3" y="453.8" width="18.41" height="18.41"/><use href="#relief-hill-1" x="758.7" y="462.7" width="9.6" height="9.6"/><use href="#relief-conifer-1" x="764.17" y="453.67" width="18.67" height="18.67"/><use href="#relief-hill-1" x="740.5" y="461" width="12" height="12"/><use href="#relief-deciduous-1" x="714.41" y="456.91" width="16.18" height="16.18"/><use href="#relief-conifer-1" x="728.75" y="455.75" width="17.5" height="17.5"/><use href="#relief-mount-1" x="734.7" y="451.7" width="21.6" height="21.6"/><use href="#relief-grass-1" x="765.13" y="452.63" width="20.74" height="20.74"/><use href="#relief-hill-1" x="735" y="462.5" width="12" height="12"/><use href="#relief-hill-1" x="744" y="462.5" width="12" height="12"/><use href="#relief-grass-1" x="691.27" y="451.27" width="23.46" height="23.46"/><use href="#relief-grass-1" x="766.92" y="453.92" width="21.17" height="21.17"/><use href="#relief-mount-1" x="737.9" y="447.9" width="27.2" height="27.2"/><use href="#relief-grass-1" x="700.11" y="452.61" width="22.78" height="22.78"/><use href="#relief-grass-1" x="689.37" y="454.87" width="21.27" height="21.27"/><use href="#relief-mount-1" x="743.1" y="451.6" width="24.8" height="24.8"/><use href="#relief-deciduous-1" x="723.48" y="460.48" width="16.04" height="16.04"/><use href="#relief-grass-1" x="694.15" y="457.15" width="19.71" height="19.71"/><use href="#relief-deciduous-1" x="714.04" y="460.54" width="16.91" height="16.91"/><use href="#relief-hill-1" x="736.9" y="466.4" width="11.2" height="11.2"/><use href="#relief-grass-1" x="688.32" y="457.32" width="20.37" height="20.37"/><use href="#relief-grass-1" x="701.59" y="457.09" width="20.81" height="20.81"/><use href="#relief-hill-1" x="740.5" y="466" width="12" height="12"/><use href="#relief-conifer-1" x="726.97" y="459.97" width="19.06" height="19.06"/><use href="#relief-hill-1" x="745.5" y="467.5" width="12" height="12"/><use href="#relief-conifer-1" x="760.88" y="463.88" width="16.24" height="16.24"/><use href="#relief-swamp-1" x="729.03" y="464.03" width="16.94" height="16.94"/><use href="#relief-grass-1" x="761.59" y="457.59" width="23.81" height="23.81"/><use href="#relief-deciduous-1" x="724.45" y="465.45" width="16.11" height="16.11"/><use href="#relief-grass-1" x="762.32" y="460.82" width="21.36" height="21.36"/><use href="#relief-deciduous-1" x="717.87" y="465.87" width="17.26" height="17.26"/><use href="#relief-grass-1" x="702.56" y="460.06" width="23.88" height="23.88"/><use href="#relief-grass-1" x="697.53" y="464.03" width="19.94" height="19.94"/><use href="#relief-deciduous-1" x="680.01" y="464.01" width="19.98" height="19.98"/><use href="#relief-deciduous-1" x="719.8" y="467.3" width="17.4" height="17.4"/><use href="#relief-grass-1" x="764.24" y="465.24" width="19.52" height="19.52"/><use href="#relief-grass-1" x="688.7" y="463.2" width="21.6" height="21.6"/><use href="#relief-grass-1" x="683.61" y="461.61" width="23.78" height="23.78"/><use href="#relief-deciduous-1" x="679.28" y="466.78" width="19.44" height="19.44"/><use href="#relief-grass-1" x="624.02" y="466.52" width="19.96" height="19.96"/><use href="#relief-grass-1" x="621.39" y="467.39" width="19.22" height="19.22"/><use href="#relief-swamp-1" x="722.65" y="469.15" width="17.69" height="17.69"/><use href="#relief-deciduous-1" x="736.21" y="467.71" width="19.57" height="19.57"/><use href="#relief-grass-1" x="693.59" y="466.59" width="20.82" height="20.82"/><use href="#relief-conifer-1" x="747.12" y="470.12" width="17.75" height="17.75"/><use href="#relief-grass-1" x="755.05" y="467.05" width="20.9" height="20.9"/><use href="#relief-grass-1" x="616.45" y="465.95" width="22.09" height="22.09"/><use href="#relief-grass-1" x="703.55" y="465.55" width="22.9" height="22.9"/><use href="#relief-deciduous-1" x="718.98" y="473.48" width="16.03" height="16.03"/><use href="#relief-deciduous-1" x="725.78" y="470.56" width="19.06" height="19.06"/><use href="#relief-deciduous-1" x="724.19" y="473.19" width="16.61" height="16.61"/><use href="#relief-grass-1" x="615.68" y="469.18" width="20.64" height="20.64"/><use href="#relief-grass-1" x="705.94" y="468.94" width="21.11" height="21.11"/><use href="#relief-swamp-1" x="644.44" y="471.94" width="18.13" height="18.13"/><use href="#relief-grass-1" x="763.87" y="466.87" width="23.26" height="23.26"/><use href="#relief-deciduous-1" x="649.96" y="474.46" width="16.09" height="16.09"/><use href="#relief-swamp-1" x="636.85" y="474.35" width="16.3" height="16.3"/><use href="#relief-deciduous-1" x="729.76" y="474.26" width="16.48" height="16.48"/><use href="#relief-grass-1" x="703.69" y="470.19" width="20.62" height="20.62"/><use href="#relief-grass-1" x="748.74" y="470.74" width="20.51" height="20.51"/><use href="#relief-deciduous-1" x="646.07" y="471.57" width="19.85" height="19.85"/><use href="#relief-grass-1" x="624" y="467.5" width="23.99" height="23.99"/><use href="#relief-swamp-1" x="641.39" y="472.39" width="19.21" height="19.21"/><use href="#relief-deciduous-1" x="652.34" y="473.34" width="18.33" height="18.33"/><use href="#relief-deciduous-1" x="676.11" y="475.11" width="16.79" height="16.79"/><use href="#relief-deciduous-1" x="732.98" y="473.98" width="18.04" height="18.04"/><use href="#relief-grass-1" x="697.41" y="470.91" width="21.18" height="21.18"/><use href="#relief-deciduous-1" x="678.72" y="475.72" width="16.56" height="16.56"/><use href="#relief-grass-1" x="613.15" y="471.65" width="20.69" height="20.69"/><use href="#relief-deciduous-1" x="681.1" y="475.6" width="16.8" height="16.8"/><use href="#relief-deciduous-1" x="669.51" y="475.51" width="16.98" height="16.98"/><use href="#relief-grass-1" x="626.37" y="470.37" width="22.26" height="22.26"/><use href="#relief-deciduous-1" x="672.35" y="474.35" width="18.3" height="18.3"/><use href="#relief-grass-1" x="759.66" y="473.16" width="19.68" height="19.68"/><use href="#relief-swamp-1" x="637.13" y="476.1" width="17.36" height="17.36"/><use href="#relief-grass-1" x="620.02" y="469.52" width="23.96" height="23.96"/><use href="#relief-grass-1" x="688.48" y="470.98" width="23.04" height="23.04"/><use href="#relief-deciduous-1" x="652.93" y="477.93" width="16.14" height="16.14"/><use href="#relief-deciduous-1" x="680.84" y="476.34" width="18.32" height="18.32"/><use href="#relief-grass-1" x="746.3" y="473.3" width="21.41" height="21.41"/><use href="#relief-deciduous-1" x="718.99" y="477.99" width="17.01" height="17.01"/><use href="#relief-swamp-1" x="733.93" y="478.93" width="16.13" height="16.13"/><use href="#relief-grass-1" x="610.83" y="474.83" width="20.33" height="20.33"/><use href="#relief-deciduous-1" x="714.31" y="478.81" width="16.37" height="16.37"/><use href="#relief-grass-1" x="662.15" y="471.65" width="23.7" height="23.7"/><use href="#relief-grass-1" x="617.61" y="471.61" width="23.79" height="23.79"/><use href="#relief-swamp-1" x="722.88" y="476.38" width="19.24" height="19.24"/><use href="#relief-deciduous-1" x="676.3" y="479.3" width="16.4" height="16.4"/><use href="#relief-deciduous-1" x="727.2" y="476.2" width="19.6" height="19.6"/><use href="#relief-deciduous-1" x="683.44" y="476.94" width="19.13" height="19.13"/><use href="#relief-grass-1" x="755.34" y="472.84" width="23.31" height="23.31"/><use href="#relief-deciduous-1" x="643.25" y="476.75" width="19.51" height="19.51"/><use href="#relief-grass-1" x="627.7" y="474.7" width="21.59" height="21.59"/><use href="#relief-deciduous-1" x="648.16" y="479.66" width="16.68" height="16.68"/><use href="#relief-swamp-1" x="655.61" y="479.61" width="16.79" height="16.79"/><use href="#relief-grass-1" x="618.8" y="477.3" width="19.39" height="19.39"/><use href="#relief-grass-1" x="614.3" y="477.3" width="19.4" height="19.4"/><use href="#relief-grass-1" x="688.67" y="475.17" width="21.66" height="21.66"/><use href="#relief-deciduous-1" x="707.77" y="477.77" width="19.46" height="19.46"/><use href="#relief-grass-1" x="660.71" y="473.71" width="23.58" height="23.58"/><use href="#relief-grass-1" x="669.98" y="476.48" width="21.04" height="21.04"/><use href="#relief-grass-1" x="693.84" y="476.34" width="21.32" height="21.32"/><use href="#relief-grass-1" x="749.3" y="476.3" width="21.4" height="21.4"/><use href="#relief-deciduous-1" x="721.91" y="481.91" width="16.19" height="16.19"/><use href="#relief-grass-1" x="609.6" y="477.6" width="20.79" height="20.79"/><use href="#relief-grass-1" x="742.46" y="475.46" width="23.08" height="23.08"/><use href="#relief-grass-1" x="658.69" y="475.19" width="23.62" height="23.62"/><use href="#relief-grass-1" x="621.5" y="476" width="23.01" height="23.01"/><use href="#relief-grass-1" x="698.16" y="475.66" width="23.69" height="23.69"/><use href="#relief-deciduous-1" x="658.58" y="482.58" width="16.84" height="16.84"/><use href="#relief-grass-1" x="664.2" y="478.2" width="21.59" height="21.59"/><use href="#relief-grass-1" x="608.5" y="479" width="20.99" height="20.99"/><use href="#relief-deciduous-1" x="685.96" y="481.96" width="18.08" height="18.08"/><use href="#relief-deciduous-1" x="653.2" y="482.7" width="17.6" height="17.6"/><use href="#relief-deciduous-1" x="680.64" y="483.64" width="16.71" height="16.71"/><use href="#relief-grass-1" x="671.13" y="480.63" width="19.73" height="19.73"/><use href="#relief-swamp-1" x="711.85" y="483.35" width="17.3" height="17.3"/><use href="#relief-deciduous-1" x="642.15" y="483.15" width="17.7" height="17.7"/><use href="#relief-swamp-1" x="717.06" y="483.06" width="17.88" height="17.88"/><use href="#relief-hill-1" x="702" y="489" width="12" height="12"/><use href="#relief-grass-1" x="627.31" y="478.81" width="22.37" height="22.37"/><use href="#relief-grass-1" x="749.66" y="480.66" width="20.67" height="20.67"/><use href="#relief-deciduous-1" x="706.66" y="482.66" width="18.67" height="18.67"/><use href="#relief-deciduous-1" x="647.62" y="484.12" width="17.77" height="17.77"/><use href="#relief-grass-1" x="660.52" y="482.52" width="19.96" height="19.96"/><use href="#relief-grass-1" x="696.92" y="479.42" width="23.16" height="23.16"/><use href="#relief-grass-1" x="689.87" y="481.37" width="21.26" height="21.26"/><use href="#relief-grass-1" x="743.77" y="480.27" width="22.46" height="22.46"/><use href="#relief-grass-1" x="692.36" y="480.86" width="22.27" height="22.27"/><use href="#relief-grass-1" x="611.18" y="479.68" width="23.64" height="23.64"/><use href="#relief-grass-1" x="665.61" y="480.61" width="22.78" height="22.78"/><use href="#relief-deciduous-1" x="649.18" y="487.18" width="16.65" height="16.65"/><use href="#relief-grass-1" x="615.08" y="480.08" width="23.85" height="23.85"/><use href="#relief-hill-1" x="697" y="492" width="12" height="12"/><use href="#relief-grass-1" x="608.24" y="482.74" width="21.51" height="21.51"/><use href="#relief-grass-1" x="620.5" y="480.5" width="23.99" height="23.99"/><use href="#relief-deciduous-1" x="680.97" y="485.47" width="19.06" height="19.06"/><use href="#relief-grass-1" x="623.46" y="484.46" width="20.08" height="20.08"/><use href="#relief-deciduous-1" x="652.44" y="486.44" width="18.11" height="18.11"/><use href="#relief-deciduous-1" x="686.39" y="486.39" width="18.21" height="18.21"/><use href="#relief-grass-1" x="662.78" y="485.28" width="19.43" height="19.43"/><use href="#relief-deciduous-1" x="750.28" y="486.28" width="18.44" height="18.44"/><use href="#relief-deciduous-1" x="721.19" y="486.19" width="18.63" height="18.63"/><use href="#relief-dune-1" x="657.77" y="488.77" width="16.46" height="16.46"/><use href="#relief-grass-1" x="671.14" y="481.64" width="23.72" height="23.72"/><use href="#relief-deciduous-1" x="715.02" y="485.52" width="19.95" height="19.95"/><use href="#relief-deciduous-1" x="709.01" y="487.01" width="18.98" height="18.98"/><use href="#relief-hill-1" x="706" y="494" width="12" height="12"/><use href="#relief-deciduous-1" x="641.92" y="487.92" width="18.17" height="18.17"/><use href="#relief-deciduous-1" x="676.16" y="486.66" width="19.69" height="19.69"/><use href="#relief-deciduous-1" x="737.15" y="487.65" width="18.71" height="18.71"/><use href="#relief-grass-1" x="625.05" y="486.55" width="19.9" height="19.9"/><use href="#relief-grass-1" x="607.58" y="487.08" width="19.84" height="19.84"/><use href="#relief-hill-1" x="702.5" y="495" width="12" height="12"/><use href="#relief-deciduous-1" x="716.48" y="488.98" width="18.04" height="18.04"/><use href="#relief-grass-1" x="612.78" y="486.78" width="20.44" height="20.44"/><use href="#relief-dune-1" x="662.23" y="490.73" width="16.54" height="16.54"/><use href="#relief-hill-1" x="712.5" y="495.5" width="12" height="12"/><use href="#relief-deciduous-1" x="750.44" y="490.44" width="17.11" height="17.11"/><use href="#relief-grass-1" x="618.28" y="486.28" width="21.45" height="21.45"/><use href="#relief-hill-1" x="693" y="496" width="12" height="12"/><use href="#relief-deciduous-1" x="742.64" y="491.64" width="16.71" height="16.71"/><use href="#relief-deciduous-1" x="748.11" y="491.61" width="16.79" height="16.79"/><use href="#relief-grass-1" x="614.87" y="489.37" width="19.27" height="19.27"/><use href="#relief-dune-1" x="652.45" y="492.95" width="17.11" height="17.11"/><use href="#relief-grass-1" x="608.7" y="489.7" width="20.61" height="20.61"/><use href="#relief-hill-1" x="704.5" y="498.5" width="12" height="12"/><use href="#relief-hill-1" x="711.5" y="499" width="12" height="12"/><use href="#relief-deciduous-1" x="639.37" y="493.87" width="17.26" height="17.26"/><use href="#relief-dune-1" x="670.84" y="494.84" width="16.33" height="16.33"/><use href="#relief-grass-1" x="617.77" y="490.77" width="20.46" height="20.46"/><use href="#relief-conifer-1" x="713.54" y="492.54" width="18.92" height="18.92"/><use href="#relief-hill-1" x="689.5" y="499.5" width="12" height="12"/><use href="#relief-hill-1" x="698.5" y="499.5" width="12" height="12"/><use href="#relief-swamp-1" x="733.26" y="495.22" width="16.54" height="16.54"/><use href="#relief-hill-1" x="693.5" y="500" width="12" height="12"/><use href="#relief-hill-1" x="683.9" y="500.9" width="11.2" height="11.2"/><use href="#relief-grass-1" x="623.34" y="491.34" width="21.32" height="21.32"/><use href="#relief-grass-1" x="677.09" y="489.09" width="23.83" height="23.83"/><use href="#relief-dune-1" x="656.92" y="494.92" width="18.16" height="18.16"/><use href="#relief-grass-1" x="609.08" y="492.58" width="20.83" height="20.83"/><use href="#relief-grass-1" x="747.99" y="491.49" width="22.01" height="22.01"/><use href="#relief-hill-1" x="678" y="501.5" width="12" height="12"/><use href="#relief-hill-1" x="708" y="506" width="8" height="8"/><use href="#relief-swamp-1" x="733.19" y="498.19" width="16.62" height="16.62"/><use href="#relief-grass-1" x="613.6" y="495.1" width="19.81" height="19.81"/><use href="#relief-dune-1" x="664.68" y="496.68" width="18.63" height="18.63"/><use href="#relief-mount-1" x="690.5" y="487.5" width="28" height="28"/><use href="#relief-hill-1" x="688.5" y="503.5" width="12" height="12"/><use href="#relief-hill-1" x="702.5" y="503.5" width="12" height="12"/><use href="#relief-swamp-1" x="741.32" y="497.32" width="18.35" height="18.35"/><use href="#relief-dune-1" x="643.12" y="496.12" width="19.75" height="19.75"/><use href="#relief-dune-1" x="650.58" y="496.08" width="19.84" height="19.84"/><use href="#relief-hill-1" x="697" y="504" width="12" height="12"/><use href="#relief-grass-1" x="618.48" y="495.98" width="20.05" height="20.05"/><use href="#relief-deciduous-1" x="624.1" y="498.6" width="17.81" height="17.81"/><use href="#relief-swamp-1" x="734.79" y="498.7" width="17.78" height="17.78"/><use href="#relief-grass-1" x="669.84" y="496.34" width="20.33" height="20.33"/><use href="#relief-grass-1" x="603.51" y="493.01" width="23.97" height="23.97"/><use href="#relief-dune-1" x="663.96" y="500.96" width="16.07" height="16.07"/><use href="#relief-swamp-1" x="736.95" y="501.45" width="16.11" height="16.11"/><use href="#relief-hill-1" x="674.5" y="506" width="12" height="12"/><use href="#relief-dune-1" x="657.35" y="500.85" width="17.3" height="17.3"/><use href="#relief-conifer-1" x="713.77" y="501.77" width="16.46" height="16.46"/><use href="#relief-swamp-1" x="717.95" y="501.45" width="17.1" height="17.1"/><use href="#relief-grass-1" x="601.49" y="496.49" width="23.01" height="23.01"/><use href="#relief-grass-1" x="604.88" y="499.38" width="20.24" height="20.24"/><use href="#relief-grass-1" x="748.05" y="497.05" width="22.9" height="22.9"/><use href="#relief-hill-1" x="688.5" y="508.5" width="12" height="12"/><use href="#relief-swamp-1" x="735.48" y="502.48" width="18.04" height="18.04"/><use href="#relief-swamp-1" x="724.65" y="504.33" width="16.2" height="16.2"/><use href="#relief-deciduous-1" x="629.91" y="504.41" width="16.17" height="16.17"/><use href="#relief-grass-1" x="740.55" y="499.55" width="21.9" height="21.9"/><use href="#relief-deciduous-1" x="625.12" y="503.12" width="18.77" height="18.77"/><use href="#relief-swamp-1" x="735.26" y="504.84" width="17.5" height="17.5"/><use href="#relief-hill-1" x="675" y="510.5" width="12" height="12"/><use href="#relief-grass-1" x="748.35" y="500.35" width="22.3" height="22.3"/><use href="#relief-grass-1" x="743.09" y="499.59" width="23.81" height="23.81"/><use href="#relief-swamp-1" x="732.26" y="504.26" width="19.49" height="19.49"/><use href="#relief-grass-1" x="661.63" y="504.13" width="19.73" height="19.73"/><use href="#relief-mount-1" x="672.6" y="499.6" width="24.8" height="24.8"/><use href="#relief-dune-1" x="648.58" y="505.58" width="18.85" height="18.85"/><use href="#relief-swamp-1" x="721.05" y="505.55" width="18.91" height="18.91"/><use href="#relief-hill-1" x="680" y="512.5" width="12" height="12"/><use href="#relief-deciduous-1" x="612.3" y="508.8" width="16.4" height="16.4"/><use href="#relief-mount-1" x="674.6" y="497.1" width="28.8" height="28.8"/><use href="#relief-deciduous-1" x="635.04" y="509.04" width="16.91" height="16.91"/><use href="#relief-swamp-1" x="727.81" y="508.05" width="18.76" height="18.76"/><use href="#relief-grass-1" x="702.87" y="504.87" width="22.26" height="22.26"/><use href="#relief-deciduous-1" x="615.45" y="509.45" width="18.1" height="18.1"/><use href="#relief-deciduous-1" x="613.25" y="511.75" width="16.51" height="16.51"/><use href="#relief-deciduous-1" x="623.71" y="510.71" width="17.58" height="17.58"/><use href="#relief-conifer-1" x="706.47" y="509.97" width="19.05" height="19.05"/><use href="#relief-swamp-1" x="733.17" y="510.67" width="18.65" height="18.65"/><use href="#relief-deciduous-1" x="626.56" y="509.56" width="19.88" height="19.88"/><use href="#relief-swamp-1" x="728.53" y="509.53" width="19.94" height="19.94"/><use href="#relief-deciduous-1" x="727.82" y="512.32" width="17.36" height="17.36"/><use href="#relief-deciduous-1" x="618.38" y="512.88" width="17.23" height="17.23"/><use href="#relief-grass-1" x="663.35" y="507.85" width="22.31" height="22.31"/><use href="#relief-grass-1" x="636.62" y="507.62" width="22.75" height="22.75"/><use href="#relief-conifer-1" x="698.46" y="512.46" width="18.07" height="18.07"/><use href="#relief-grass-1" x="630.38" y="509.88" width="21.23" height="21.23"/><use href="#relief-deciduous-1" x="614.2" y="514.2" width="17.61" height="17.61"/><use href="#relief-conifer-1" x="658.22" y="514.72" width="17.56" height="17.56"/><use href="#relief-conifer-1" x="667.08" y="515.58" width="16.85" height="16.85"/><use href="#relief-grass-1" x="628.02" y="512.52" width="20.96" height="20.96"/><use href="#relief-conifer-1" x="697.34" y="514.34" width="19.33" height="19.33"/><use href="#relief-grass-1" x="632.74" y="514.24" width="19.52" height="19.52"/><use href="#relief-conifer-1" x="661.97" y="515.97" width="18.05" height="18.05"/><use href="#relief-grass-1" x="622.91" y="512.91" width="21.18" height="21.18"/><use href="#relief-conifer-1" x="702.96" y="516.46" width="18.08" height="18.08"/><use href="#relief-grass-1" x="618.8" y="514.3" width="20.39" height="20.39"/><use href="#relief-grass-1" x="647.66" y="515.16" width="19.68" height="19.68"/><use href="#relief-deciduous-1" x="653.09" y="516.59" width="18.82" height="18.82"/><use href="#relief-grass-1" x="636.56" y="513.56" width="21.89" height="21.89"/><use href="#relief-grass-1" x="641.04" y="513.54" width="21.92" height="21.92"/><use href="#relief-conifer-1" x="688.45" y="516.45" width="19.1" height="19.1"/><use href="#relief-conifer-1" x="708.36" y="518.86" width="18.29" height="18.29"/><use href="#relief-grass-1" x="612.86" y="515.36" width="22.27" height="22.27"/><use href="#relief-grass-1" x="675.52" y="515.02" width="22.95" height="22.95"/><use href="#relief-deciduous-1" x="657.44" y="519.94" width="18.12" height="18.12"/><use href="#relief-grass-1" x="725.33" y="516.83" width="21.34" height="21.34"/><use href="#relief-conifer-1" x="695.75" y="521.75" width="16.51" height="16.51"/><use href="#relief-conifer-1" x="673.18" y="519.68" width="18.63" height="18.63"/><use href="#relief-conifer-1" x="666.83" y="519.33" width="19.33" height="19.33"/><use href="#relief-conifer-1" x="703.77" y="522.27" width="16.47" height="16.47"/><use href="#relief-grass-1" x="629.48" y="518.98" width="20.03" height="20.03"/><use href="#relief-grass-1" x="616.29" y="518.79" width="20.42" height="20.42"/><use href="#relief-conifer-1" x="689.4" y="520.4" width="19.2" height="19.2"/><use href="#relief-grass-1" x="632.15" y="517.65" width="22.69" height="22.69"/><use href="#relief-grass-1" x="613.12" y="519.62" width="20.75" height="20.75"/><use href="#relief-grass-1" x="625.07" y="517.57" width="22.87" height="22.87"/><use href="#relief-deciduous-1" x="653.01" y="521.51" width="18.98" height="18.98"/><use href="#relief-grass-1" x="725.18" y="521.18" width="19.63" height="19.63"/><use href="#relief-grass-1" x="622.14" y="518.14" width="22.73" height="22.73"/><use href="#relief-grass-1" x="645.75" y="519.75" width="21.49" height="21.49"/><use href="#relief-grass-1" x="711.15" y="519.65" width="21.7" height="21.7"/><use href="#relief-grass-1" x="618.15" y="517.65" width="23.71" height="23.71"/><use href="#relief-grass-1" x="636.45" y="518.45" width="23.1" height="23.1"/><use href="#relief-deciduous-1" x="647.74" y="522.74" width="19.52" height="19.52"/><use href="#relief-grass-1" x="640.5" y="519.5" width="22.99" height="22.99"/><use href="#relief-deciduous-1" x="656.4" y="524.4" width="18.21" height="18.21"/><use href="#relief-grass-1" x="717.34" y="522.34" width="20.31" height="20.31"/><use href="#relief-grass-1" x="707.28" y="522.28" width="20.44" height="20.44"/><use href="#relief-swamp-1" x="662.11" y="524.61" width="18.78" height="18.78"/><use href="#relief-grass-1" x="631.15" y="520.15" width="23.71" height="23.71"/><use href="#relief-grass-1" x="636.93" y="523.93" width="20.15" height="20.15"/><use href="#relief-deciduous-1" x="694.76" y="525.26" width="19.49" height="19.49"/><use href="#relief-conifer-1" x="670.71" y="525.21" width="19.57" height="19.57"/><use href="#relief-deciduous-1" x="651.04" y="527.04" width="17.92" height="17.92"/><use href="#relief-grass-1" x="633.95" y="524.95" width="20.1" height="20.1"/><use href="#relief-grass-1" x="712.84" y="523.34" width="22.32" height="22.32"/><use href="#relief-grass-1" x="717.27" y="525.27" width="20.46" height="20.46"/><use href="#relief-conifer-1" x="670.72" y="529.72" width="16.56" height="16.56"/><use href="#relief-grass-1" x="709.92" y="524.42" width="22.16" height="22.16"/><use href="#relief-deciduous-1" x="699.98" y="530.98" width="16.04" height="16.04"/><use href="#relief-deciduous-1" x="696.36" y="529.86" width="17.29" height="17.29"/><use href="#relief-deciduous-1" x="681.16" y="530.66" width="16.68" height="16.68"/><use href="#relief-deciduous-1" x="683.09" y="528.09" width="19.82" height="19.82"/><use href="#relief-deciduous-1" x="656.92" y="529.92" width="18.16" height="18.16"/><use href="#relief-grass-1" x="708.27" y="526.77" width="21.46" height="21.46"/><use href="#relief-grass-1" x="701.26" y="527.76" width="20.49" height="20.49"/><use href="#relief-grass-1" x="641.36" y="528.86" width="20.27" height="20.27"/><use href="#relief-grass-1" x="634.37" y="527.87" width="21.27" height="21.27"/><use href="#relief-deciduous-1" x="651.04" y="529.54" width="19.91" height="19.91"/><use href="#relief-grass-1" x="646" y="527.5" width="22" height="22"/><use href="#relief-grass-1" x="641.82" y="526.32" width="23.37" height="23.37"/><use href="#relief-swamp-1" x="672.04" y="531.04" width="18.93" height="18.93"/><use href="#relief-deciduous-1" x="667.03" y="531.53" width="18.93" height="18.93"/><use href="#relief-deciduous-1" x="689.76" y="533.26" width="17.48" height="17.48"/><use href="#relief-swamp-1" x="682.95" y="534.95" width="16.11" height="16.11"/><use href="#relief-deciduous-1" x="665.62" y="533.12" width="18.75" height="18.75"/><use href="#relief-deciduous-1" x="683.25" y="533.75" width="18.5" height="18.5"/><use href="#relief-grass-1" x="647.53" y="532.53" width="19.95" height="19.95"/><use href="#relief-deciduous-1" x="650.47" y="535.47" width="17.06" height="17.06"/><use href="#relief-deciduous-1" x="677.28" y="533.28" width="19.44" height="19.44"/><use href="#relief-deciduous-1" x="658.12" y="533.12" width="19.77" height="19.77"/><use href="#relief-deciduous-1" x="654.53" y="536.03" width="16.94" height="16.94"/><use href="#relief-deciduous-1" x="658.23" y="535.23" width="18.55" height="18.55"/></g><g id="relig" opacity="0.7" stroke="#777777" stroke-width="0"/><g id="cults" opacity="0.6" stroke="#777777" stroke-width="0.5"/><g id="regions"><g id="statesBody" opacity="0.4"><path d="M659,485 L660,480 663,482 664,483 664,484 664,485 664,485 666,488 668,488 668,485 670,484 670,483 670,483 672,483 674,481 676,481 677,481 680,481 680,481 683,481 683,481 683,485 686,486 687,487 687,487 687,489 690,489 692,490 692,492 693,493 693,498 692,498 689,498 686,500 687,503 686,505 683,505 681,509 679,509 678,514 674,512 674,511 675,509 671,507 674,503 673,502 669,502 668,501 668,500 663,497 664,494 665,494 664,491 662,489 660,489 658,485 659,485 Z" fill="#1ddea4" id="state1"/><path d="M660,480 663,482 664,483 664,484 664,485 664,485 666,488 668,488 668,485 670,484 670,483 670,483 672,483 674,481 676,481 677,481 680,481 680,481 683,481 683,481" fill="none" stroke="#1ddea4" stroke-width="3" id="state-gap1"/><path d="M628,475 L626,477 626,477 623,478 623,480 620,481 620,483 619,484 618,486 617,487 617,487 617,487 617,489 617,491 616,493 616,495 616,496 615,498 616,499 616,501 616,502 614,504 613,506 612,506 611,508 611,510 612,510 613,510 615,512 617,509 621,511 622,510 623,508 625,508 626,509 631,508 632,505 635,505 638,504 638,503 636,500 638,497 638,493 640,493 642,489 641,487 642,485 639,483 640,480 638,479 638,478 636,477 635,475 633,474 633,474 633,474 630,474 629,476 628,475 Z" fill="#6d42ae" id="state2"/><path d="M628,475 626,477 626,477 623,478 623,480 620,481 620,483 619,484 618,486 617,487 617,487 617,487 617,489 617,491 616,493 616,495 616,496 615,498 616,499 616,501 616,502 614,504 613,506 612,506 611,508 611,510 612,510 613,510 615,512 M640,480 638,479 638,478 636,477 635,475 633,474 633,474 633,474 630,474 629,476 628,475" fill="none" stroke="#6d42ae" stroke-width="3" id="state-gap2"/><path d="M655,478 L656,478 657,480 659,480 660,480 659,485 658,485 660,489 662,489 664,491 665,494 664,494 663,497 662,498 659,498 659,498 655,496 654,495 653,497 649,500 651,503 650,505 650,506 647,509 647,509 646,512 645,514 647,516 646,521 645,521 644,521 640,517 639,519 638,520 636,522 635,521 631,522 630,522 626,524 626,524 623,525 620,524 621,522 619,521 620,519 618,518 618,516 617,515 617,514 616,512 615,512 617,509 621,511 622,510 623,508 625,508 626,509 631,508 632,505 635,505 638,504 638,503 636,500 638,497 638,493 640,493 642,489 645,490 646,489 650,489 651,489 650,486 651,484 653,483 655,484 655,478 Z" fill="#87f557" id="state3"/><path d="M655,478 656,478 657,480 659,480 660,480 M623,525 620,524 621,522 619,521 620,519 618,518 618,516 617,515 617,514 616,512 615,512 M655,478" fill="none" stroke="#87f557" stroke-width="3" id="state-gap3"/><path d="M639,519 L640,517 644,521 645,521 646,521 647,516 649,516 650,522 650,522 653,521 655,522 655,527 659,529 654,534 655,534 655,535 655,542 652,541 651,542 650,541 649,542 648,542 647,541 645,541 643,539 644,537 642,536 642,534 640,532 640,532 638,531 635,532 634,533 633,533 632,532 629,532 628,532 626,532 626,532 623,532 622,531 621,530 622,529 621,527 623,525 626,524 626,524 630,522 631,522 635,521 636,522 638,520 639,519 Z" fill="#3fff58" id="state4"/><path d="M655,542 652,541 651,542 650,541 649,542 648,542 647,541 645,541 643,539 644,537 642,536 642,534 640,532 640,532 638,531 635,532 634,533 633,533 632,532 629,532 628,532 626,532 626,532 623,532 622,531 621,530 622,529 621,527 623,525" fill="none" stroke="#3fff58" stroke-width="3" id="state-gap4"/><path d="M660,529 L663,528 665,531 669,532 670,531 671,531 674,530 677,532 678,534 683,532 683,532 686,532 686,531 687,531 692,534 692,535 695,535 697,534 697,533 701,530 702,527 705,528 707,531 709,531 710,528 714,528 715,527 720,526 721,528 725,529 725,530 731,533 730,535 730,535 729,537 727,538 726,538 725,538 723,538 722,538 721,538 718,540 717,540 717,541 714,541 714,540 710,540 710,541 708,542 706,541 703,541 702,542 701,542 699,544 698,545 697,545 695,545 694,546 690,546 690,546 689,546 688,546 686,545 685,544 684,544 681,542 679,543 679,543 677,544 677,544 675,545 674,545 673,542 671,543 670,546 670,546 669,547 669,547 666,547 665,546 663,547 661,545 659,546 657,545 660,542 659,540 659,538 663,537 663,536 662,534 661,534 660,529 660,529 Z" fill="#eb535b" id="state5"/><path d="M731,533 730,535 730,535 729,537 727,538 726,538 725,538 723,538 722,538 721,538 718,540 717,540 717,541 714,541 714,540 710,540 710,541 708,542 706,541 703,541 702,542 701,542 699,544 698,545 697,545 695,545 694,546 690,546 690,546 689,546 688,546 686,545 685,544 684,544 681,542 679,543 679,543 677,544 677,544 675,545 674,545 673,542 671,543 670,546 670,546 669,547 669,547 666,547 665,546 663,547 661,545 659,546 657,545" fill="none" stroke="#eb535b" stroke-width="3" id="state-gap5"/><path d="M698,489 L701,489 702,489 706,490 706,493 711,492 711,494 715,496 715,497 716,499 722,499 721,504 721,504 718,508 719,509 719,512 716,513 717,517 719,519 718,522 715,522 714,524 710,523 709,524 709,526 707,526 705,523 701,525 701,527 697,528 695,525 693,527 692,528 690,528 687,531 686,531 684,526 679,527 679,527 679,526 675,527 674,526 672,522 671,522 670,522 668,521 664,521 664,519 665,516 667,517 670,515 669,511 674,511 674,512 678,514 679,509 681,509 683,505 686,505 687,503 686,500 689,498 692,498 693,498 695,498 698,494 698,494 698,489 Z" fill="#f6a95c" id="state6"/><path d="M697,469 L696,467 699,466 701,468 701,468 703,470 706,470 706,470 710,472 711,472 713,475 712,478 711,480 711,483 711,484 713,489 711,491 711,492 706,493 706,490 702,489 701,489 698,489 698,494 698,494 695,498 693,498 693,493 692,492 692,490 690,489 687,489 687,487 687,487 686,486 683,485 683,481 685,481 685,481 687,478 686,477 687,474 687,473 689,471 689,471 691,470 694,470 695,471 696,471 697,469 Z" fill="#1dbbce" id="state7"/><path d="M697,469 696,467 699,466 M683,481 685,481 685,481 687,478 686,477 687,474 687,473 689,471 689,471 691,470 694,470 695,471 696,471 697,469" fill="none" stroke="#1dbbce" stroke-width="3" id="state-gap7"/><path d="M729,452 L730,451 732,451 735,453 735,456 735,457 736,461 735,462 729,460 728,461 726,460 726,456 728,454 729,452 Z" fill="#e6f443" id="state8"/><path d="M725,440 L725,438 728,438 728,438 731,437 731,438 734,436 735,441 733,441 733,446 734,447 732,451 730,451 729,452 728,454 726,456 726,460 728,461 729,464 731,466 729,471 726,471 724,472 722,471 718,474 718,475 713,475 711,472 710,472 706,470 706,470 703,470 701,468 701,468 699,466 698,465 700,463 700,461 700,461 701,459 701,458 703,457 705,458 706,457 708,458 709,458 710,458 710,457 713,457 713,457 717,457 717,455 716,453 716,453 715,450 717,448 717,447 719,444 719,444 720,441 720,441 722,441 723,440 725,440 Z" fill="#db4ed2" id="state9"/><path d="M725,440 725,438 728,438 728,438 731,437 731,438 734,436 M699,466 698,465 700,463 700,461 700,461 701,459 701,458 703,457 705,458 706,457 708,458 709,458 710,458 710,457 713,457 713,457 717,457 717,455 716,453 716,453 715,450 717,448 717,447 719,444 719,444 720,441 720,441 722,441 723,440 725,440" fill="none" stroke="#db4ed2" stroke-width="3" id="state-gap9"/><path d="M718,474 L718,475 713,475 712,478 711,480 711,483 711,484 713,489 711,491 711,492 711,494 715,496 715,497 716,499 722,499 722,499 722,498 728,496 728,495 729,493 733,492 733,492 733,489 730,487 730,484 730,484 730,481 728,479 732,475 730,473 729,471 729,471 726,471 724,472 722,471 718,474 Z" fill="#b5ea51" id="state10"/><path d="M728,461 L729,460 735,462 734,466 734,466 738,468 739,470 740,471 741,475 743,475 744,475 747,475 749,479 748,480 749,483 748,484 745,485 744,489 744,489 743,493 738,494 738,493 733,492 733,489 730,487 730,484 730,484 730,481 728,479 732,475 730,473 729,471 729,471 731,466 729,464 728,461 Z" fill="#7b3fae" id="state11"/><path d="M744,443 L745,441 748,441 749,441 752,443 752,446 754,447 756,446 758,447 761,446 766,447 766,446 768,446 771,448 772,450 772,451 771,452 774,455 772,458 772,458 771,460 767,459 766,460 768,464 767,467 767,469 766,470 761,470 761,471 760,474 759,475 758,476 754,477 753,477 753,477 749,479 747,475 744,475 743,475 741,475 740,471 739,470 738,468 734,466 734,466 735,462 736,461 735,457 735,456 735,453 732,451 734,447 737,447 738,446 742,447 744,444 744,443 ZM749,455 L753,457 753,458 753,458 757,455 759,457 758,461 763,460 764,460 763,465 760,466 759,466 753,468 753,470 749,472 747,470 745,469 744,469 744,467 745,465 749,464 748,460 748,460 747,455 749,455 Z" fill="#20b3d4" id="state12"/><path d="M739,430 L741,428 744,428 745,427 746,427 747,427 750,427 750,427 753,427 755,428 756,428 758,429 759,428 760,429 760,429 763,431 763,432 765,433 765,435 766,436 766,436 767,437 767,439 769,441 771,442 771,443 773,443 773,444 776,446 776,446 778,448 777,450 778,452 777,453 777,455 777,455 776,456 775,458 776,461 776,461 773,465 771,463 771,461 771,460 772,458 772,458 774,455 771,452 772,451 772,450 771,448 768,446 766,446 766,447 761,446 758,447 756,446 754,447 752,446 752,443 749,441 748,441 745,441 744,443 744,444 742,447 738,446 737,447 734,447 733,446 733,441 735,441 734,436 735,435 736,435 737,434 737,432 739,430 739,430 Z" fill="#2188e4" id="state13"/><path d="M739,430 741,428 744,428 745,427 746,427 747,427 750,427 750,427 753,427 755,428 756,428 758,429 759,428 760,429 760,429 763,431 763,432 765,433 765,435 766,436 766,436 767,437 767,439 769,441 771,442 771,443 773,443 773,444 776,446 776,446 778,448 777,450 778,452 777,453 777,455 777,455 776,456 775,458 776,461 M734,436 735,435 736,435 737,434 737,432 739,430 739,430" fill="none" stroke="#2188e4" stroke-width="3" id="state-gap13"/><path d="M748,460 L747,455 749,455 753,457 753,458 753,458 757,455 759,457 758,461 763,460 764,460 763,465 760,466 759,466 753,468 753,470 749,472 747,470 745,469 744,469 744,467 745,465 749,464 748,460 748,460 Z" fill="#b7d035" id="state14"/><path d="M737,498 L732,504 731,504 730,505 725,503 722,505 724,507 725,508 724,513 726,514 726,519 724,520 724,522 726,524 725,529 730,528 731,533 733,532 735,533 737,532 737,530 739,528 739,528 739,527 740,525 739,523 741,521 744,522 744,522 745,520 745,519 745,517 745,516 745,513 747,512 748,512 749,512 751,513 753,513 753,514 756,513 757,512 759,513 762,512 762,511 763,509 763,508 763,506 762,504 761,504 762,501 761,500 759,501 756,503 754,502 754,501 749,497 748,499 746,500 744,503 742,503 741,503 740,502 738,498 738,498 737,498 Z" fill="#d53ea6" id="state15"/><path d="M731,533 733,532 735,533 737,532 737,530 739,528 739,528 739,527 740,525 739,523 741,521 744,522 744,522 745,520 745,519 745,517 745,516 745,513 747,512 748,512 749,512 751,513 753,513 753,514 756,513 757,512 759,513 762,512 762,511 763,509 763,508 763,506 762,504 761,504 762,501 761,500" fill="none" stroke="#d53ea6" stroke-width="3" id="state-gap15"/><path d="M773,465 L776,461 776,461 777,461 778,462 780,464 780,465 778,467 778,467 776,469 775,472 776,472 775,472 777,475 776,476 778,478 777,481 775,480 773,483 773,484 773,484 770,486 769,487 767,487 766,489 763,490 763,492 763,493 762,496 762,496 758,494 758,492 758,492 753,495 752,494 752,490 751,489 752,484 753,484 755,482 757,481 759,478 761,479 763,478 764,475 766,474 767,473 771,475 772,474 770,469 771,469 773,467 773,465 773,465 Z" fill="#ff5c66" id="state16"/><path d="M776,461 777,461 778,462 780,464 780,465 778,467 778,467 776,469 775,472 776,472 775,472 777,475 776,476 778,478 777,481 775,480 773,483 773,484 773,484 770,486 769,487 767,487 766,489 763,490 763,492 763,493 762,496 762,496" fill="none" stroke="#ff5c66" stroke-width="3" id="state-gap16"/></g><g id="statesHalo" opacity="0.4" data-width="10" stroke-width="10" filter="blur(3.5px)" style="display: block;"/></g><g id="provs" opacity="1" fill="#000000" font-size="4" font-family="Georgia" data-labels="1" data-size="4">
    
    
  </g><g id="labels" style="display: inline;"><g id="burgLabels"><g id="cities" opacity="1" fill="#3e3e4b" letter-spacing="0" data-size="7" font-size="4.03" font-family="Almendra SC" style="text-shadow: white 0px 0px 4px;" class=""><text text-rendering="optimizeSpeed" id="burgLabel1" data-id="1" x="678.27" y="490.62" dy="-1.5px" class="">Evermere</text><text text-rendering="optimizeSpeed" id="burgLabel2" data-id="2" x="637.93" y="490.75" dy="-1.5px" class="">Nudadh</text><text text-rendering="optimizeSpeed" id="burgLabel3" data-id="3" x="620.13" y="520.4" dy="-1.5px" class="">Hun</text><text text-rendering="optimizeSpeed" id="burgLabel4" data-id="4" x="639.32" y="530.98" dy="-1.5px" class="">Dobsil</text><text text-rendering="optimizeSpeed" id="burgLabel5" data-id="5" x="688.87" y="533.74" dy="-1.5px" class="">Xarthar</text><text text-rendering="optimizeSpeed" id="burgLabel6" data-id="6" x="696.57" y="508.7" dy="-1.5px" class="">Moria</text><text text-rendering="optimizeSpeed" id="burgLabel7" data-id="7" x="695.62" y="471.55" dy="-1.5px" class="">Rockwood</text><text text-rendering="optimizeSpeed" id="burgLabel8" data-id="8" x="730.98" y="457.78" dy="-1.5px" class="">Duskairn</text><text text-rendering="optimizeSpeed" id="burgLabel9" data-id="9" x="726.69" y="439.96" dy="-1.5px">Khaz-Alcity</text><text text-rendering="optimizeSpeed" id="burgLabel10" data-id="10" x="722.73" y="483.28" dy="-1.5px" class="">Olarvale</text><text text-rendering="optimizeSpeed" id="burgLabel11" data-id="11" x="731.93" y="469.83" dy="-1.5px" class="">Nyfasemel</text><text text-rendering="optimizeSpeed" id="burgLabel12" data-id="12" x="748.03" y="443.48" dy="-1.5px" class="">Batan</text><text text-rendering="optimizeSpeed" id="burgLabel13" data-id="13" x="753.18" y="434.38" dy="-1.5px" class="">Sleh</text><text text-rendering="optimizeSpeed" id="burgLabel14" data-id="14" x="752.38" y="461.13" dy="-1.5px" class="">Selunevile</text><text text-rendering="optimizeSpeed" id="burgLabel15" data-id="15" x="747.74" y="511.57" dy="-1.5px" class="">Mylathlin</text><text text-rendering="optimizeSpeed" id="burgLabel16" data-id="16" x="774.53" y="466.93" dy="-1.5px" class="">Shimber</text></g><g id="towns" opacity="1" fill="#3e3e4b" letter-spacing="0" data-size="4" font-size="2.3" font-family="Almendra SC" style="text-shadow: white 0px 0px 4px;" class=""><text text-rendering="optimizeSpeed" id="burgLabel17" data-id="17" x="673.27" y="482.92" dy="-0.75px" class="">Bahía Tormenta</text><text text-rendering="optimizeSpeed" id="burgLabel18" data-id="18" x="684.41" y="497.32" dy="-0.75px" class="">Ravenwood</text><text text-rendering="optimizeSpeed" id="burgLabel19" data-id="19" x="667.57" y="497.87" dy="-0.75px" class="">Oasis</text><text text-rendering="optimizeSpeed" id="burgLabel20" data-id="20" x="683.48" y="501.55" dy="-0.75px" class="">Ashenport</text><text text-rendering="optimizeSpeed" id="burgLabel21" data-id="21" x="689.1" y="483.49" dy="-0.75px" class="">Witham</text><text text-rendering="optimizeSpeed" id="burgLabel22" data-id="22" x="695.49" y="492.04" dy="-0.75px" class="">Walworth</text><text text-rendering="optimizeSpeed" id="burgLabel24" data-id="24" x="707.9" y="490.68" dy="-0.75px" class="">Sherston</text><text text-rendering="optimizeSpeed" id="burgLabel25" data-id="25" x="707.94" y="475.33" dy="-0.75px" class="">Felmeley</text><text text-rendering="optimizeSpeed" id="burgLabel26" data-id="26" x="690.5" y="525.54" dy="-0.75px" class="">Kindaraba</text><text text-rendering="optimizeSpeed" id="burgLabel27" data-id="27" x="712.57" y="496.55" dy="-0.75px" class="">Buru</text><text text-rendering="optimizeSpeed" id="burgLabel28" data-id="28" x="620.12" y="507.63" dy="-0.75px" class="">Driz</text><text text-rendering="optimizeSpeed" id="burgLabel29" data-id="29" x="648.03" y="519.38" dy="-0.75px" class="">Thres</text><text text-rendering="optimizeSpeed" id="burgLabel30" data-id="30" x="712.71" y="536.23" dy="-0.75px" class="">Gobok</text><text text-rendering="optimizeSpeed" id="burgLabel31" data-id="31" x="661.08" y="544.61" dy="-0.75px" class="">Aghaz</text><text text-rendering="optimizeSpeed" id="burgLabel32" data-id="32" x="714" y="487.68" dy="-0.75px" class="">Lefran</text><text text-rendering="optimizeSpeed" id="burgLabel33" data-id="33" x="740.54" y="491.3" dy="-0.75px" class="">Saikhan</text><text text-rendering="optimizeSpeed" id="burgLabel34" data-id="34" x="702.73" y="458.57" dy="-0.75px" class="">Mad´hun</text><text text-rendering="optimizeSpeed" id="burgLabel35" data-id="35" x="720.94" y="463.24" dy="-0.75px" class="">Halalmud</text><text text-rendering="optimizeSpeed" id="burgLabel36" data-id="36" x="773.92" y="458.13" dy="-0.75px" class="">Dos Ríos</text><text text-rendering="optimizeSpeed" id="burgLabel37" data-id="37" x="765.99" y="486.66" dy="-0.75px" class="">Pan</text></g></g><g id="states" opacity="0" fill="#3e3e4b" stroke="#3a3a3a" stroke-width="0" letter-spacing="0" data-size="6" font-size="3.45" font-family="Almendra SC" style="text-shadow: white 0px 0px 4px;" class=""><text text-rendering="optimizeSpeed" id="stateLabel1" transform="translate(-1.9000244140625,-0.255615234375)"><textPath startOffset="50%" font-size="110%" href="#textPath_stateLabel1"><tspan x="0" dy="-0.5em">Kingdom </tspan><tspan x="0" dy="1em">of Valora</tspan></textPath></text><text text-rendering="optimizeSpeed" id="stateLabel2" transform="translate(-0.1148681640625,-7.6962890625)"><textPath startOffset="50%" font-size="110%" href="#textPath_stateLabel2"><tspan x="0" dy="-0.5em">Krigh </tspan><tspan x="0" dy="1em">United Tribes</tspan></textPath></text><text text-rendering="optimizeSpeed" id="stateLabel3" transform="translate(2.98663330078125,-0.1148681640625)"><textPath startOffset="50%" font-size="110%" href="#textPath_stateLabel3" letter-spacing="1px"><tspan x="0" dy="-0.5em">Genghis </tspan><tspan x="0" dy="1em">Clan</tspan></textPath></text><text text-rendering="optimizeSpeed" id="stateLabel4" transform="translate(-1.9527587890625,-2.87176513671875)"><textPath startOffset="50%" font-size="110%" href="#textPath_stateLabel4"><tspan x="0" dy="-0.5em">Horde </tspan><tspan x="0" dy="1em">of Bhiaxi</tspan></textPath></text><text text-rendering="optimizeSpeed" id="stateLabel5" transform="translate(22.16986083984375,1.2635498046875)"><textPath startOffset="50%" font-size="110%" href="#textPath_stateLabel5"><tspan x="0" dy="-0.5em">Mirnax </tspan><tspan x="0" dy="1em">Dominion</tspan></textPath></text><text text-rendering="optimizeSpeed" id="stateLabel6" transform="translate(-1.0889892578125,-1.5372314453125)"><textPath startOffset="50%" font-size="110%" href="#textPath_stateLabel6"><tspan x="0" dy="-0.5em">Dominion </tspan><tspan x="0" dy="1em">of Khunulba</tspan></textPath></text><text text-rendering="optimizeSpeed" id="stateLabel7" transform="translate(3.20001220703125,-0.5)"><textPath startOffset="50%" font-size="110%" href="#textPath_stateLabel7"><tspan x="0" dy="-0.5em">Whitbury </tspan><tspan x="0" dy="1em">Republic</tspan></textPath></text><text text-rendering="optimizeSpeed" id="stateLabel8"><textPath startOffset="50%" font-size="70%" href="#textPath_stateLabel8"><tspan x="0" dy="-0.5em">Holy State </tspan><tspan x="0" dy="1em">of Dustcairn</tspan></textPath></text><text text-rendering="optimizeSpeed" id="stateLabel9"><textPath startOffset="50%" font-size="110%" href="#textPath_stateLabel9"><tspan x="0" dy="-0.5em">Sultanate </tspan><tspan x="0" dy="1em">of Khaz-Alun</tspan></textPath></text><text text-rendering="optimizeSpeed" id="stateLabel10" transform="translate(-2.507080078125,1.8472900390625)"><textPath startOffset="50%" font-size="105%" href="#textPath_stateLabel10"><tspan x="0" dy="-0.5em">Elarithvan </tspan><tspan x="0" dy="1em">Kingdom</tspan></textPath></text><text text-rendering="optimizeSpeed" id="stateLabel11"><textPath startOffset="50%" font-size="110%" href="#textPath_stateLabel11"><tspan x="0" dy="-0.5em">Duchy of </tspan><tspan x="0" dy="1em">Mythalos</tspan></textPath></text><text text-rendering="optimizeSpeed" id="stateLabel12"><textPath startOffset="50%" font-size="100%" href="#textPath_stateLabel12"><tspan x="0" dy="-0.5em">Dominion of </tspan><tspan x="0" dy="1em">Shatrekvan</tspan></textPath></text><text text-rendering="optimizeSpeed" id="stateLabel13" transform="translate(-3.43072509765625,-6.333648681640625)"><textPath startOffset="50%" font-size="110%" href="#textPath_stateLabel13"><tspan x="0" dy="-0.5em">Gnomalian </tspan><tspan x="0" dy="1em">Confederation</tspan></textPath></text><text text-rendering="optimizeSpeed" id="stateLabel14" transform="translate(-3.43072509765625,0.92364501953125)"><textPath startOffset="50%" font-size="50%" href="#textPath_stateLabel14"><tspan x="0" dy="-0.5em">Divine Empire </tspan><tspan x="0" dy="1em">of Sellumanora</tspan></textPath></text><text text-rendering="optimizeSpeed" id="stateLabel15" transform="translate(-8.23516845703125,5.977203369140625)"><textPath startOffset="50%" font-size="110%" href="#textPath_stateLabel15"><tspan x="0" dy="-0.5em">Naiolondean </tspan><tspan x="0" dy="1em">Dominion</tspan></textPath></text><text text-rendering="optimizeSpeed" id="stateLabel16" transform="translate(0.3446044921875,1.837890625)"><textPath startOffset="50%" font-size="110%" href="#textPath_stateLabel16"><tspan x="0" dy="-0.5em">Commonwealth </tspan><tspan x="0" dy="1em">of Shimberia</tspan></textPath></text></g><g id="addedLabels" opacity="1" fill="#3e3e4b" stroke="#3a3a3a" stroke-width="0" letter-spacing="0" data-size="18" font-size="10.36" font-family="Almendra SC" style="text-shadow: white 0px 0px 4px;" class="hidden"/></g><g id="zones" opacity="0.6" stroke="#333333" stroke-width="0" stroke-linecap="butt"/><g id="borders"><g id="stateBorders" opacity="0.8" stroke="#56566d" stroke-width="1" stroke-dasharray="2" stroke-linecap="butt"><path d="M734,447 733,446 733,441 735,441 734,436 M734,447 737,447 738,446 742,447 744,444 744,443 745,441 748,441 749,441 752,443 752,446 754,447 756,446 758,447 761,446 766,447 766,446 768,446 771,448 772,450 772,451 771,452 774,455 772,458 772,458 771,460 M732,451 730,451 729,452 728,454 726,456 726,460 728,461 M735,462 736,461 735,457 735,456 735,453 732,451 M734,447 732,451 M748,460 747,455 749,455 753,457 753,458 753,458 757,455 759,457 758,461 763,460 764,460 763,465 760,466 759,466 753,468 753,470 749,472 747,470 745,469 744,469 744,467 745,465 749,464 748,460 748,460 M749,479 753,477 753,477 754,477 758,476 759,475 760,474 761,471 761,470 766,470 767,469 767,467 768,464 766,460 767,459 771,460 M773,465 771,463 771,461 771,460 M699,466 701,468 701,468 703,470 706,470 706,470 710,472 711,472 713,475 M729,471 731,466 729,464 728,461 M735,462 729,460 728,461 M749,479 747,475 744,475 743,475 741,475 740,471 739,470 738,468 734,466 734,466 735,462 M762,496 758,494 758,492 758,492 753,495 752,494 752,490 751,489 752,484 753,484 755,482 757,481 759,478 761,479 763,478 764,475 766,474 767,473 771,475 772,474 770,469 771,469 773,467 773,465 773,465 M776,461 776,461 773,465 M733,492 733,489 730,487 730,484 730,484 730,481 728,479 732,475 730,473 729,471 729,471 M713,475 718,475 718,474 722,471 724,472 726,471 729,471 M713,475 712,478 711,480 711,483 711,484 713,489 711,491 711,492 M733,492 738,493 738,494 743,493 744,489 744,489 745,485 748,484 749,483 748,480 749,479 M642,489 641,487 642,485 639,483 640,480 M642,489 645,490 646,489 650,489 651,489 650,486 651,484 653,483 655,484 655,478 M663,497 664,494 665,494 664,491 662,489 660,489 658,485 659,485 660,480 M693,498 693,493 692,492 692,490 690,489 687,489 687,487 687,487 686,486 683,485 683,481 M711,492 706,493 706,490 702,489 701,489 698,489 698,494 698,494 695,498 693,498 M642,489 640,493 638,493 638,497 636,500 638,503 638,504 635,505 632,505 631,508 626,509 625,508 623,508 622,510 621,511 617,509 615,512 M663,497 662,498 659,498 659,498 655,496 654,495 653,497 649,500 651,503 650,505 650,506 647,509 647,509 646,512 645,514 647,516 M711,492 711,494 715,496 715,497 716,499 722,499 M733,492 733,492 729,493 728,495 728,496 722,498 722,499 722,499 M663,497 668,500 668,501 669,502 673,502 674,503 671,507 675,509 674,511 M693,498 692,498 689,498 686,500 687,503 686,505 683,505 681,509 679,509 678,514 674,512 674,511 M674,511 669,511 670,515 667,517 665,516 664,519 664,521 668,521 670,522 671,522 672,522 674,526 675,527 679,526 679,527 679,527 684,526 686,531 687,531 690,528 692,528 693,527 695,525 697,528 701,527 701,525 705,523 707,526 709,526 709,524 710,523 714,524 715,522 718,522 719,519 717,517 716,513 719,512 719,509 718,508 721,504 721,504 722,499 M731,533 730,528 725,529 726,524 724,522 724,520 726,519 726,514 724,513 725,508 724,507 722,505 725,503 730,505 731,504 732,504 737,498 738,498 738,498 740,502 741,503 742,503 744,503 746,500 748,499 749,497 754,501 754,502 756,503 759,501 761,500 M647,516 646,521 645,521 644,521 640,517 639,519 638,520 636,522 635,521 631,522 630,522 626,524 626,524 623,525 M655,542 655,535 655,534 654,534 659,529 655,527 655,522 653,521 650,522 650,522 649,516 647,516 M686,531 687,531 M731,533 725,530 725,529 721,528 720,526 715,527 714,528 710,528 709,531 707,531 705,528 702,527 701,530 697,533 697,534 695,535 692,535 692,534 687,531 686,531 686,532 683,532 683,532 678,534 677,532 674,530 671,531 670,531 669,532 665,531 663,528 660,529 660,529 661,534 662,534 663,536 663,537 659,538 659,540 660,542 657,545"/></g><g id="provinceBorders" opacity="0.8" stroke="#56566d" stroke-width="0.5" stroke-dasharray="0 2" stroke-linecap="round"><path d=""/></g></g><g id="routes"><g id="roads" opacity="0.9" stroke="#d06324" stroke-width="0.7" stroke-dasharray="2" stroke-linecap="butt"/><g id="trails" opacity="0.9" stroke="#d06324" stroke-width="0.25" stroke-dasharray=".8 1.6" stroke-linecap="butt"/><g id="searoutes" opacity="0.8" stroke="#ffffff" stroke-width="0.45" stroke-dasharray="1 2" stroke-linecap="round"/></g><g id="temperature" font-size="8px" fill="#000000" fill-opacity="0.3" stroke-width="1.8"/><g id="coastline"><g id="sea_island" opacity="0.5" stroke="#1f3846" stroke-width="0.7" auto-filter="1" style="filter: none;" filter="url(#blurFilter)"><use href="#feature_2" data-f="2"/></g><g id="lake_island" opacity="1" stroke="#7c8eaf" stroke-width="0.35"/></g><g id="ice" opacity="0.9" fill="#f1f8fe" stroke="#e8f0f6" stroke-width="0.5" filter="url(#dropShadow01)" style="display: none;"><polygon points="744,443,745,441,748,441,749,441,752,443,753,442,756,443,757,441,762,442,763,440,763,440,767,445,767,445,772,449,772,450,771,452,769,453,768,455,768,456,762,455,763,460,764,460,763,465,760,466,759,466,753,468,753,470,754,471,754,477,753,477,749,473,747,475,744,475,743,475,741,475,740,471,744,469,744,467,745,465,742,461,743,460,743,457,740,455,739,451,743,450,742,447,744,444,744,443" type="iceShield"/><polygon points="735,483,735,480,738,480,741,481,739,485,739,485,735,483,735,483" type="iceShield"/><polygon points="725,489,727,489,730,487,733,489,733,492,733,492,733,497,729,499,729,499,728,496,722,498,722,499,725,500,725,503,722,505,721,504,721,504,722,499,716,499,715,497,715,496,716,495,718,494,722,495,723,493,723,490,725,489" type="iceShield"/><polygon points="683,505,686,505,687,508,691,510,692,511,691,513,687,515,687,515,687,515,686,509,683,510,681,509,683,505" type="iceShield"/><polygon points="698,508,697,504,702,505,702,503,707,504,707,506,706,508,702,507,700,508,698,508,698,508" type="iceShield"/></g><g id="prec" stroke="#000000" stroke-width="0" fill="#003dff" style="display: none;"><g id="wind"><text text-rendering="optimizeSpeed" x="1219" y="28.765" opacity="0">⇇</text><text text-rendering="optimizeSpeed" x="1219" y="438.07000000000005" opacity="0">⇇</text><text text-rendering="optimizeSpeed" x="20" y="846.26" opacity="0">⇉</text><text text-rendering="optimizeSpeed" x="635.5" y="42" opacity="0">⇊</text><text text-rendering="optimizeSpeed" x="635.5" y="852" opacity="0">⇈</text></g></g><g id="population" stroke-width="1.6" stroke-linecap="butt"><g id="rural" stroke="#0000ff"/><g id="urban" stroke="#ff0000"/></g><g id="emblems" opacity="0.9" stroke-width="1" style="display: none;"><g id="burgEmblems" data-size="1" class="" font-size="20"><use data-i="1" x="657" y="461" width="1em" height="1em"/><use data-i="2" x="638" y="461" width="1em" height="1em"/><use data-i="3" x="588" y="521" width="1em" height="1em"/><use data-i="4" x="610" y="535" width="1em" height="1em"/><use data-i="5" x="682" y="530" width="1em" height="1em"/><use data-i="6" x="680" y="501" width="1em" height="1em"/><use data-i="7" x="664" y="455" width="1em" height="1em"/><use data-i="8" x="730" y="446" width="1em" height="1em"/><use data-i="9" x="706" y="414" width="1em" height="1em"/><use data-i="10" x="714" y="464" width="1em" height="1em"/><use data-i="11" x="722" y="459" width="1em" height="1em"/><use data-i="12" x="739" y="434" width="1em" height="1em"/><use data-i="13" x="756" y="407" width="1em" height="1em"/><use data-i="14" x="738" y="440" width="1em" height="1em"/><use data-i="15" x="731" y="524" width="1em" height="1em"/><use data-i="16" x="786" y="451" width="1em" height="1em"/><use data-i="17" x="661.93" y="473.71" width="1em" height="1em"/><use data-i="18" x="676.11" y="486.36" width="1em" height="1em"/><use data-i="19" x="660.02" y="489.04" width="1em" height="1em"/><use data-i="20" x="673.48" y="491.55" width="1em" height="1em"/><use data-i="21" x="679.31" y="467.68" width="1em" height="1em"/><use data-i="22" x="685.49" y="482.04" width="1em" height="1em"/><use data-i="24" x="699.33" y="478.12" width="1em" height="1em"/><use data-i="25" x="697.94" y="465.33" width="1em" height="1em"/><use data-i="26" x="676.9" y="516.81" width="1em" height="1em"/><use data-i="27" x="707.97" y="491.95" width="1em" height="1em"/><use data-i="28" x="610.12" y="497.63" width="1em" height="1em"/><use data-i="29" x="638.03" y="509.38" width="1em" height="1em"/><use data-i="30" x="698.05" y="526.71" width="1em" height="1em"/><use data-i="31" x="651.08" y="534.61" width="1em" height="1em"/><use data-i="32" x="704.37" y="480.26" width="1em" height="1em"/><use data-i="33" x="730.54" y="481.3" width="1em" height="1em"/><use data-i="34" x="692.73" y="448.57" width="1em" height="1em"/><use data-i="35" x="710.94" y="453.24" width="1em" height="1em"/><use data-i="36" x="763.92" y="448.13" width="1em" height="1em"/><use data-i="37" x="755.99" y="476.66" width="1em" height="1em"/></g><g id="provinceEmblems" data-size="1" class="" font-size="24"><use data-i="1" x="665.1818237304688" y="482.71771240234375" width="1em" height="1em"/><use data-i="2" x="690.2669677734375" y="467.86370849609375" width="1em" height="1em"/></g><g id="stateEmblems" data-size="1" class="hidden" font-size="46"><use data-i="1" x="635" y="474" width="1em" height="1em"/><use data-i="2" x="599" y="455" width="1em" height="1em"/><use data-i="3" x="591" y="491" width="1em" height="1em"/><use data-i="4" x="619" y="513" width="1em" height="1em"/><use data-i="5" x="656" y="531" width="1em" height="1em"/><use data-i="6" x="684" y="504" width="1em" height="1em"/><use data-i="7" x="658" y="463" width="1em" height="1em"/><use data-i="8" x="704" y="427" width="1em" height="1em"/><use data-i="9" x="668" y="422" width="1em" height="1em"/><use data-i="10" x="688" y="464" width="1em" height="1em"/><use data-i="11" x="721" y="467" width="1em" height="1em"/><use data-i="12" x="756" y="410" width="1em" height="1em"/><use data-i="13" x="720" y="394" width="1em" height="1em"/><use data-i="14" x="737" y="442" width="1em" height="1em"/><use data-i="15" x="738" y="500" width="1em" height="1em"/><use data-i="16" x="770" y="466" width="1em" height="1em"/></g></g><g id="icons"><g id="burgIcons"><g id="cities" opacity="1" fill="#ffffff" fill-opacity="0.7" size="1" stroke="#3e3e4b" stroke-width="0.24" stroke-dasharray="" stroke-linecap="butt"><circle id="burg1" data-id="1" cx="678.27" cy="490.62" r="1"/><circle id="burg2" data-id="2" cx="637.93" cy="490.75" r="1"/><circle id="burg3" data-id="3" cx="620.13" cy="520.4" r="1"/><circle id="burg4" data-id="4" cx="639.32" cy="530.98" r="1"/><circle id="burg5" data-id="5" cx="688.87" cy="533.74" r="1"/><circle id="burg6" data-id="6" cx="696.57" cy="508.7" r="1"/><circle id="burg7" data-id="7" cx="695.62" cy="471.55" r="1"/><circle id="burg8" data-id="8" cx="730.98" cy="457.78" r="1"/><circle id="burg9" data-id="9" cx="726.69" cy="439.96" r="1"/><circle id="burg10" data-id="10" cx="722.73" cy="483.28" r="1"/><circle id="burg11" data-id="11" cx="731.93" cy="469.83" r="1"/><circle id="burg12" data-id="12" cx="748.03" cy="443.48" r="1"/><circle id="burg13" data-id="13" cx="753.18" cy="434.38" r="1"/><circle id="burg14" data-id="14" cx="752.38" cy="461.13" r="1"/><circle id="burg15" data-id="15" cx="747.74" cy="511.57" r="1"/><circle id="burg16" data-id="16" cx="774.53" cy="466.93" r="1"/></g><g id="towns" opacity="1" fill="#ffffff" fill-opacity="0.7" size="0.5" stroke="#3e3e4b" stroke-width="0.12" stroke-dasharray="" stroke-linecap="butt"><circle id="burg17" data-id="17" cx="673.27" cy="482.92" r="0.5"/><circle id="burg18" data-id="18" cx="684.41" cy="497.32" r="0.5"/><circle id="burg19" data-id="19" cx="667.57" cy="497.87" r="0.5"/><circle id="burg20" data-id="20" cx="683.48" cy="501.55" r="0.5"/><circle id="burg21" data-id="21" cx="689.1" cy="483.49" r="0.5"/><circle id="burg22" data-id="22" cx="695.49" cy="492.04" r="0.5"/><circle id="burg24" data-id="24" cx="707.9" cy="490.68" r="0.5"/><circle id="burg25" data-id="25" cx="707.94" cy="475.33" r="0.5"/><circle id="burg26" data-id="26" cx="690.5" cy="525.54" r="0.5"/><circle id="burg27" data-id="27" cx="712.57" cy="496.55" r="0.5"/><circle id="burg28" data-id="28" cx="620.12" cy="507.63" r="0.5"/><circle id="burg29" data-id="29" cx="648.03" cy="519.38" r="0.5"/><circle id="burg30" data-id="30" cx="712.71" cy="536.23" r="0.5"/><circle id="burg31" data-id="31" cx="661.08" cy="544.61" r="0.5"/><circle id="burg32" data-id="32" cx="714" cy="487.68" r="0.5"/><circle id="burg33" data-id="33" cx="740.54" cy="491.3" r="0.5"/><circle id="burg34" data-id="34" cx="702.73" cy="458.57" r="0.5"/><circle id="burg35" data-id="35" cx="720.94" cy="463.24" r="0.5"/><circle id="burg36" data-id="36" cx="773.92" cy="458.13" r="0.5"/><circle id="burg37" data-id="37" cx="765.99" cy="486.66" r="0.5"/></g></g><g id="anchors"><g id="cities" opacity="1" fill="#ffffff" size="2" stroke="#3e3e4b" stroke-width="1.2"><use xlink:href="#icon-anchor" data-id="3" x="619.19" y="519.46" width="2" height="2"/><use xlink:href="#icon-anchor" data-id="4" x="638.38" y="530.04" width="2" height="2"/><use xlink:href="#icon-anchor" data-id="7" x="694.68" y="470.61" width="2" height="2"/><use xlink:href="#icon-anchor" data-id="9" x="725.75" y="439.02" width="2" height="2"/><use xlink:href="#icon-anchor" data-id="15" x="746.8" y="510.63" width="2" height="2"/></g><g id="towns" opacity="1" fill="#ffffff" size="1" stroke="#3e3e4b" stroke-width="1.2"><use xlink:href="#icon-anchor" data-id="17" x="672.8" y="482.45" width="1" height="1"/><use xlink:href="#icon-anchor" data-id="31" x="660.61" y="544.14" width="1" height="1"/><use xlink:href="#icon-anchor" data-id="34" x="702.26" y="458.1" width="1" height="1"/></g></g></g><g id="armies" font-size="6" box-size="3" stroke="#000" stroke-width="0.3" fill-opacity="1"/><g id="markers" rescale="1"/><g id="fogging-cont" mask="url(#fog)"><g id="fogging" opacity="0.98" fill="#30426f" style="display: none;"><rect x="0" y="0" width="1271" height="872"/><rect x="0" y="0" width="1271" height="872" fill="#e8f0f6" filter="url(#splotch)"/></g></g><g id="ruler" style=""/><g id="debug"/></g>
      <g id="scaleBar" opacity="1" fill="#353540" font-size="10" data-bar-size="2" data-x="99" data-y="99" data-label="" transform="translate(1656,984)" style="">
        <rect id="scaleBarBack" opacity="0.2" fill="#ffffff" stroke="#000000" stroke-width="1" filter="url(#blur5)" data-top="20" data-right="15" data-bottom="15" data-left="10" x="-10" y="-20" width="254.4160919189453" height="32"/>
      <g id="scaleBarContent"><g><line x1="0.5" y1="0" x2="221.41798512881596" y2="0" stroke-width="2" stroke="white"/><line x1="0" y1="2" x2="221.91798512881596" y2="2" stroke-width="2" stroke="#3d3d3d"/><line x1="0" y1="0" x2="221.91798512881596" y2="0" stroke-width="6" stroke-dasharray="2 41.98" stroke="#3d3d3d"/></g><g text-anchor="middle" font-family="var(--serif)"><text text-rendering="optimizeSpeed" x="0" y="0" dy="-.6em">0</text><text text-rendering="optimizeSpeed" x="43.98" y="0" dy="-.6em">20</text><text text-rendering="optimizeSpeed" x="87.97" y="0" dy="-.6em">40</text><text text-rendering="optimizeSpeed" x="131.95" y="0" dy="-.6em">60</text><text text-rendering="optimizeSpeed" x="175.93" y="0" dy="-.6em">80</text><text text-rendering="optimizeSpeed" x="219.92" y="0" dy="-.6em">100 mi</text></g></g></g>
      <g id="vignette" mask="url(#vignette-mask)" opacity="0.3" fill="#000000" style="">
        <rect x="0" y="0" width="100%" height="100%"/>
      </g>
    <g id="legend" data-size="13" font-size="13" font-family="Almendra SC" stroke="#812929" stroke-width="2.5" stroke-dasharray="0 4 10 4" stroke-linecap="round" data-x="93.64" data-y="78.44" data-columns="8" transform="translate(1684,409)"/></svg>